<?xml version="1.0" encoding="utf-8"?>
<!-- Generator: Adobe Illustrator 22.0.1, SVG Export Plug-In . SVG Version: 6.00 Build 0)  -->
<svg version="1.1" id="Layer_1" xmlns="http://www.w3.org/2000/svg" xmlns:xlink="http://www.w3.org/1999/xlink" x="0px" y="0px"
	 viewBox="0 0 450.2 70.8" style="enable-background:new 0 0 450.2 70.8;" xml:space="preserve">
<style type="text/css">
	.st0{fill:#005DAC;}
</style>
<title>HughesCorporate_Logo_RGB_Color_FromBluetext</title>
<rect x="300.9" y="0" class="st0" width="62" height="19.2"/>
<polygon class="st0" points="322,43.5 352.4,43.5 352.4,25.2 300.9,25.2 300.9,70.7 362.9,70.7 362.9,51.4 322,51.4 "/>
<path class="st0" d="M216.7,0h-38.3c-12,0-22.4,6.9-28.9,19.2h67.1V0z"/>
<path class="st0" d="M183.5,43.5h12.1v7.9h-11.5c-10.9,0-15.9-8.8-15.9-19.7c0-2.2,0.2-4.4,0.7-6.5h-20.7c-0.4,1.9-0.5,3.9-0.5,5.9
	v8.2c0,17.2,13.8,31.4,30.9,31.4h38.3V25.2h-33.2V43.5z"/>
<path class="st0" d="M438.5,39.5c-2.9-8.1-9.8-13.9-17.9-14.3h-48.6c1.5,10,9.6,17.6,19.6,18.3h23.6c2.2-0.3,4.2,1.2,4.5,3.4
	c0.3,2.2-1.2,4.2-3.4,4.5c-0.4,0.1-0.8,0-1.2,0h-43.1v19.2h47.8C431,70.4,440,60.3,440,47.8C440,45,439.5,42.2,438.5,39.5z
	 M404.9,42L404.9,42z"/>
<path class="st0" d="M437.8,0h-44.3c-11,0.1-20.1,8.3-21.4,19.2h65.7V0z"/>
<path class="st0" d="M119.4,39.8c0,5.9-5.2,10.6-11.7,10.6S96.1,45.7,96,39.8V25.2H74.9V40c0,17,12.1,30.9,27,30.9h11.5
	c14.9,0,27.2-13.8,27.1-30.9V25.2h-21.1V39.8z"/>
<rect x="74.9" y="0" class="st0" width="21.1" height="19.2"/>
<rect x="119.4" y="0" class="st0" width="21.1" height="19.2"/>
<polygon class="st0" points="21.1,0 0,0 0,70.7 21.1,70.7 21.1,43.5 44.6,43.5 44.6,70.7 65.7,70.7 65.7,25.2 21.1,25.2 "/>
<rect x="44.6" y="0" class="st0" width="21.1" height="19.2"/>
<polygon class="st0" points="226,70.7 247.1,70.7 247.1,43.5 270.5,43.5 270.5,70.7 291.6,70.7 291.6,25.2 226,25.2 "/>
<rect x="270.5" y="0" class="st0" width="21.1" height="19.2"/>
<rect x="226" y="0" class="st0" width="21.1" height="19.2"/>
<path d="M445.2,60.4c2.8,0,5.1,2.4,5,5.2c0,2.8-2.4,5.1-5.2,5c-2.8,0-5-2.3-5-5.1C440,62.7,442.3,60.4,445.2,60.4
	C445.2,60.4,445.2,60.4,445.2,60.4z M445.2,61.3c-2.4-0.1-4.3,1.8-4.4,4.2c-0.1,2.4,1.8,4.3,4.2,4.4c2.4,0.1,4.3-1.8,4.4-4.2
	c0,0,0-0.1,0-0.1c0.1-2.3-1.7-4.2-4-4.3C445.3,61.3,445.3,61.3,445.2,61.3L445.2,61.3z M444.1,68.5h-0.9v-5.9h2.3
	c1.4,0,2.1,0.5,2.1,1.7c0,0.8-0.6,1.6-1.4,1.6c0,0-0.1,0-0.1,0l1.7,2.6h-1l-1.6-2.6h-1L444.1,68.5z M444.1,65.2h1.1
	c1.1,0,1.5-0.3,1.5-1s-0.3-0.9-1.3-0.9h-1.2V65.2z"/>
</svg>
