<?xml version="1.0" standalone="no"?>
<!DOCTYPE svg PUBLIC "-//W3C//DTD SVG 20010904//EN"
 "http://www.w3.org/TR/2001/REC-SVG-20010904/DTD/svg10.dtd">
<svg version="1.0" xmlns="http://www.w3.org/2000/svg"
 width="1200.000000pt" height="1343.000000pt" viewBox="0 0 1200.000000 1343.000000"
 preserveAspectRatio="xMidYMid meet">

<g transform="translate(0.000000,1343.000000) scale(0.100000,-0.100000)"
fill="#000000" stroke="none">
<path d="M5626 13093 l7 -340 -104 -6 c-152 -9 -397 -36 -529 -57 -63 -11
-116 -17 -118 -15 -3 2 -54 140 -114 307 -60 166 -110 304 -112 305 -2 2 -236
-68 -688 -206 -92 -28 -169 -51 -171 -51 -3 0 42 -142 99 -315 57 -173 104
-318 104 -322 0 -5 -27 -19 -60 -31 -64 -25 -408 -195 -532 -263 -43 -24 -79
-41 -81 -38 -27 36 -163 212 -271 352 l-137 177 -47 -32 c-45 -30 -673 -468
-681 -474 -2 -2 85 -124 193 -273 108 -148 196 -274 196 -279 0 -5 -35 -38
-77 -73 -43 -35 -168 -152 -278 -261 -110 -109 -202 -198 -204 -198 -1 0 -124
83 -272 185 -147 102 -272 186 -278 187 -8 3 -531 -674 -531 -687 0 -2 122
-93 271 -202 149 -109 273 -203 276 -209 2 -6 -20 -49 -50 -95 -74 -115 -155
-255 -249 -436 -44 -84 -82 -153 -85 -153 -6 0 -242 81 -489 168 l-141 50
-141 -407 c-78 -223 -143 -412 -144 -419 -2 -9 98 -49 307 -123 170 -60 310
-111 311 -112 2 -1 -8 -48 -21 -104 -37 -154 -72 -352 -90 -508 -9 -77 -18
-150 -21 -162 l-4 -21 -328 5 -329 6 -6 -114 c-4 -63 -7 -261 -7 -441 l0 -327
33 -5 c17 -3 166 -7 330 -10 164 -2 301 -7 305 -10 3 -3 11 -66 19 -139 18
-185 48 -382 77 -522 14 -66 22 -122 18 -126 -4 -4 -148 -53 -319 -110 -179
-59 -313 -109 -313 -116 0 -13 259 -835 265 -841 2 -2 148 44 325 103 177 59
323 105 325 103 3 -2 43 -91 90 -197 99 -223 159 -344 216 -438 23 -38 43 -71
46 -75 2 -4 -120 -100 -272 -213 l-275 -205 27 -38 c16 -21 135 -185 267 -364
l239 -326 136 104 c75 58 198 152 273 209 l136 105 110 -123 c61 -67 130 -141
154 -164 l43 -42 268 557 c147 307 267 563 267 569 0 7 -32 52 -71 100 -239
296 -466 713 -612 1123 -233 656 -318 1426 -226 2065 118 829 506 1601 1119
2229 645 661 1486 1104 2384 1255 264 45 404 56 701 55 289 0 443 -14 695 -60
1474 -271 2713 -1363 3179 -2804 214 -665 255 -1369 120 -2105 -111 -605 -374
-1199 -766 -1727 -35 -48 -63 -94 -61 -101 2 -7 129 -255 283 -551 l279 -537
91 93 c50 51 116 122 148 157 l56 64 271 -203 c149 -112 272 -201 274 -199 2
2 117 168 256 368 241 346 252 364 234 378 -10 8 -135 98 -276 200 l-258 184
41 72 c48 85 163 323 240 494 32 72 60 123 68 123 8 0 154 -45 324 -100 170
-55 312 -98 314 -96 7 7 265 837 261 841 -1 2 -148 51 -326 110 -273 90 -322
109 -318 123 28 88 65 328 103 667 l8 70 328 3 327 2 -2 443 -3 442 -332 3
c-256 2 -333 5 -333 15 -1 85 -49 402 -91 590 -17 77 -29 140 -27 142 3 2 106
36 521 172 59 19 107 38 107 43 0 11 -267 830 -272 835 -2 3 -58 -13 -124 -34
-65 -22 -211 -69 -323 -106 -112 -36 -204 -65 -205 -63 -1 2 -29 62 -61 133
-80 179 -178 374 -232 463 -44 72 -45 76 -27 89 10 8 135 98 276 200 l258 186
-23 31 c-13 17 -131 178 -261 359 -131 180 -240 327 -244 327 -4 -1 -128 -90
-277 -200 -257 -189 -271 -197 -289 -182 -10 10 -87 91 -171 182 -84 91 -193
201 -244 244 -50 44 -91 83 -91 86 0 3 88 130 195 281 150 212 191 277 182
286 -19 18 -690 505 -701 509 -6 1 -99 -119 -206 -268 -107 -148 -200 -272
-207 -275 -7 -3 -99 45 -205 105 -211 120 -299 165 -398 207 -36 15 -66 28
-67 29 -2 1 47 147 107 325 77 226 106 323 97 326 -6 3 -145 48 -307 100 -162
53 -348 113 -412 135 -104 34 -117 36 -123 22 -4 -10 -54 -147 -112 -307 -58
-159 -109 -294 -113 -298 -4 -5 -100 9 -211 32 -112 22 -260 48 -329 56 -69 9
-140 19 -157 21 l-33 5 0 334 0 335 -113 0 c-63 0 -263 3 -446 7 l-332 6 7
-340z m-74 -748 c3 -29 2 -30 -60 -41 -34 -6 -65 -13 -67 -16 -4 -4 44 -294
60 -365 4 -19 0 -23 -40 -29 -25 -3 -48 -4 -51 -1 -3 3 -20 88 -38 189 l-33
183 -29 -1 c-16 0 -47 -4 -70 -8 l-41 -7 -6 37 c-4 21 -5 40 -3 42 2 2 84 18
183 36 120 22 180 29 185 22 3 -6 8 -24 10 -41z m508 15 l0 -40 -125 0 -125 0
0 -55 0 -55 115 0 115 0 0 -40 0 -40 -115 0 -115 0 0 -65 0 -65 130 0 130 0 0
-40 0 -40 -180 0 -180 0 0 240 0 240 175 0 175 0 0 -40z m450 -4 c29 -14 53
-36 67 -62 32 -55 30 -74 -6 -74 -16 0 -36 -3 -45 -6 -11 -4 -19 2 -25 19 -15
39 -58 67 -103 67 -77 0 -124 -84 -116 -204 4 -51 9 -63 36 -87 44 -40 102
-40 141 -1 15 15 30 33 32 40 5 16 89 -15 89 -33 0 -7 -13 -30 -29 -52 -66
-91 -216 -98 -305 -15 -44 42 -66 98 -66 174 0 208 158 321 330 234z m348 -52
c2 -1 -4 -41 -14 -88 -9 -48 -15 -89 -12 -91 8 -8 167 -39 172 -34 3 3 12 39
21 80 22 104 17 98 69 86 25 -6 46 -13 46 -16 -1 -17 -97 -452 -101 -455 -5
-6 -78 10 -86 18 -3 2 4 47 15 98 11 51 17 96 14 100 -8 7 -172 41 -176 36 -2
-2 -11 -45 -21 -96 -10 -51 -21 -95 -26 -98 -9 -5 -89 13 -89 21 0 7 91 439
95 452 3 8 15 8 47 1 24 -6 44 -12 46 -14z m512 -128 c22 -10 29 -29 65 -178
22 -92 43 -169 46 -172 3 -3 25 57 49 135 24 77 47 142 50 144 11 7 80 -18 80
-28 0 -5 -32 -108 -71 -229 -68 -213 -71 -220 -94 -214 -71 18 -68 12 -109
187 -22 90 -42 167 -45 171 -4 4 -26 -52 -50 -125 -24 -72 -46 -135 -50 -140
-6 -6 -67 8 -80 19 -2 2 29 105 70 229 80 246 70 233 139 201z m-2721 -38 c6
-17 8 -35 4 -38 -5 -4 -51 -22 -103 -40 -52 -18 -97 -35 -99 -36 -5 -4 30
-104 37 -104 4 0 43 14 87 30 44 16 85 30 91 30 6 0 16 -16 21 -35 11 -35 11
-36 -24 -50 -20 -8 -37 -15 -39 -15 -2 0 -28 -9 -58 -20 l-54 -21 30 -82 c17
-45 31 -88 32 -96 1 -13 -70 -45 -83 -36 -14 8 -165 439 -155 442 122 48 273
102 286 102 9 1 20 -12 27 -31z m3367 -183 c50 -21 111 -82 130 -131 32 -84
-3 -208 -79 -281 -74 -71 -153 -81 -253 -34 -133 63 -169 190 -93 332 65 121
175 164 295 114z m-3861 -16 c55 -15 134 -98 158 -166 23 -65 24 -141 1 -188
-34 -72 -138 -135 -223 -135 -117 1 -241 143 -241 275 0 59 42 137 92 170 78
52 138 64 213 44z m4236 -169 l40 -21 -90 -173 -90 -173 102 -53 c56 -29 104
-55 106 -57 3 -2 -3 -19 -12 -38 l-17 -35 -150 75 c-82 41 -150 78 -150 81 0
10 211 414 216 414 3 0 23 -9 45 -20z m524 -262 c156 -77 180 -249 55 -392
-86 -98 -220 -102 -329 -10 -45 38 -71 96 -71 164 0 65 22 118 75 178 77 89
169 109 270 60z m-5607 -20 l21 -32 -97 -64 c-53 -36 -101 -68 -105 -72 -8 -7
39 -90 50 -90 2 0 44 27 93 60 49 33 94 60 99 60 5 0 19 -13 30 -28 l20 -29
-99 -67 -99 -68 35 -53 36 -53 110 75 c87 60 112 73 119 62 23 -35 29 -50 24
-60 -4 -5 -70 -52 -148 -104 l-140 -94 -133 196 c-74 108 -132 199 -129 201
10 11 280 191 287 191 3 1 15 -13 26 -31z m-398 -270 l23 -31 -52 -46 -52 -46
126 -150 126 -150 -36 -32 -37 -32 -115 137 c-63 75 -121 143 -128 151 -11 11
-21 7 -64 -29 l-51 -43 -25 23 c-14 13 -25 28 -24 34 0 8 275 246 284 246 1 0
12 -14 25 -32z m6462 -60 c49 -15 123 -78 148 -129 23 -45 26 -126 6 -154 -13
-18 -14 -18 -49 4 -33 20 -35 24 -34 71 2 43 -2 53 -32 84 -64 66 -139 58
-214 -23 -47 -51 -63 -92 -52 -141 9 -41 57 -87 106 -101 36 -11 42 -11 62 9
l21 22 -39 40 -39 40 25 25 24 25 75 -75 74 -75 -64 -65 c-39 -39 -73 -65 -85
-65 -77 0 -195 83 -234 163 -25 51 -28 132 -7 182 22 52 95 125 151 151 56 26
99 30 157 12z m-6721 -401 c118 -111 144 -151 136 -209 -6 -48 -46 -108 -99
-151 -28 -23 -51 -31 -91 -35 -50 -4 -55 -2 -112 42 -33 25 -102 85 -153 133
l-94 88 34 32 33 33 119 -110 c64 -61 126 -115 137 -121 50 -26 129 32 129 94
0 27 -17 48 -127 153 l-127 121 28 37 27 37 32 -27 c17 -14 74 -67 128 -117z
m7099 17 c0 -7 -14 -52 -31 -99 -17 -47 -29 -89 -25 -92 3 -4 49 1 101 11 53
9 100 14 105 11 5 -3 22 -23 39 -44 l30 -38 -132 -17 c-73 -9 -146 -20 -164
-23 -20 -3 -61 -30 -107 -69 l-74 -64 -31 39 -31 39 77 65 78 65 39 129 c22
70 44 139 49 153 l9 25 34 -39 c19 -22 34 -45 34 -52z m-7566 -278 l28 -24
-42 -56 c-41 -54 -42 -58 -24 -70 64 -45 289 -219 292 -224 1 -4 -11 -23 -27
-42 l-28 -35 -158 119 c-88 67 -160 115 -163 110 -72 -107 -76 -109 -126 -70
-17 14 -11 23 95 165 63 82 116 150 119 150 3 0 18 -10 34 -23z m-118 -502
l193 -126 -26 -39 c-14 -21 -27 -39 -29 -39 -4 0 -386 248 -392 255 -7 7 39
75 51 75 6 0 97 -57 203 -126z m8242 5 c13 -22 22 -42 20 -43 -2 -2 -43 -24
-93 -51 l-89 -48 137 -36 138 -36 30 -54 c16 -30 28 -56 26 -57 -2 -2 -54 12
-117 31 -63 19 -118 35 -121 35 -3 0 -43 -68 -89 -151 l-83 -150 -28 50 c-16
28 -29 53 -29 57 0 4 26 50 59 103 32 53 61 101 65 108 4 8 -11 17 -45 27
l-52 16 -64 -34 -64 -34 -20 40 c-13 26 -17 44 -11 50 9 9 392 216 402 217 3
1 15 -18 28 -40z m-8527 -64 l30 -16 -35 -62 -35 -62 170 -93 c93 -51 169 -99
169 -105 0 -7 -9 -27 -20 -45 l-20 -33 -78 42 c-42 24 -120 66 -172 96 l-94
53 -31 -55 c-18 -30 -34 -57 -37 -61 -10 -9 -69 26 -66 40 7 26 172 316 180
316 5 0 22 -7 39 -15z m8772 -427 c10 -23 14 -45 9 -49 -4 -3 -40 -19 -80 -34
-40 -16 -75 -32 -77 -36 -4 -5 50 -152 61 -167 1 -2 41 13 88 32 l86 35 15
-36 c8 -19 15 -41 15 -47 0 -7 -93 -50 -207 -95 -115 -46 -213 -85 -219 -88
-13 -5 -47 78 -36 88 4 3 43 21 87 39 44 17 83 35 87 39 6 6 -47 149 -60 163
-4 3 -45 -9 -91 -28 -47 -19 -90 -34 -96 -34 -12 0 -42 76 -34 85 6 5 421 174
430 175 3 0 13 -19 22 -42z m-8933 -63 c0 -9 -6 -31 -14 -50 -12 -27 -21 -34
-47 -37 -41 -4 -71 -42 -72 -92 -1 -35 13 -55 37 -56 10 0 54 46 114 118 72
87 163 94 231 17 27 -31 31 -43 31 -93 -1 -138 -105 -247 -215 -226 -38 7 -43
19 -24 73 10 28 15 31 50 31 30 0 46 6 64 26 33 36 42 87 21 119 -31 47 -56
34 -140 -69 -49 -60 -90 -86 -140 -86 -31 0 -45 7 -77 39 -34 33 -39 45 -39
83 0 79 41 162 97 199 36 24 123 27 123 4z m-102 -489 c123 -35 225 -66 229
-69 3 -3 -1 -25 -8 -49 l-14 -43 -165 -47 c-91 -27 -169 -49 -174 -51 -5 -2
53 -20 128 -42 75 -21 141 -42 147 -46 14 -8 -7 -79 -23 -79 -6 0 -109 28
-229 62 -218 62 -218 62 -212 88 16 67 13 65 175 109 84 23 164 46 177 50 19
5 -8 16 -128 51 -120 35 -150 47 -147 59 3 9 8 28 12 44 3 15 7 27 8 27 1 0
102 -29 224 -64z m8984 -31 c123 -14 231 -25 241 -25 18 0 29 -21 41 -75 6
-29 2 -33 -194 -180 -110 -83 -204 -149 -208 -148 -4 1 -12 22 -18 48 l-12 45
44 32 c24 17 44 38 44 46 0 8 -10 50 -21 92 -23 84 -31 90 -109 90 -23 0 -29
6 -38 39 -14 46 -15 61 -3 61 5 0 110 -11 233 -25z m-9106 -460 c114 -25 212
-45 217 -45 10 0 1 -80 -11 -92 -7 -7 -447 84 -458 94 -2 3 -2 24 2 47 5 30
11 41 24 41 10 0 111 -20 226 -45z m9484 -52 c20 -133 24 -229 10 -262 -13
-32 -78 -71 -119 -71 -38 0 -87 29 -106 63 l-17 32 -90 -88 c-50 -48 -93 -85
-96 -83 -3 3 -9 28 -13 56 l-8 51 47 42 c117 105 122 111 122 159 l0 45 -87
-13 c-49 -8 -93 -14 -99 -14 -12 0 -29 79 -19 88 3 3 105 20 228 38 122 17
225 32 228 33 4 1 12 -34 19 -76z m-170 -526 l235 -82 0 -54 0 -53 -224 -99
c-124 -55 -228 -99 -233 -99 -4 0 -8 23 -8 51 l0 50 50 21 51 21 -3 95 -3 95
-47 16 c-26 9 -49 18 -51 21 -7 8 -15 100 -8 100 3 0 112 -37 241 -83z m-9170
-130 c0 -53 3 -50 -173 -158 l-138 -84 156 -3 155 -3 0 -44 0 -45 -240 0 -240
0 0 49 0 48 157 97 157 96 -157 0 -157 0 0 45 0 45 240 0 240 0 0 -43z m9300
-365 c80 -40 115 -101 114 -196 -1 -115 -43 -184 -130 -210 -19 -6 -22 -1 -28
41 -4 34 -3 49 6 52 7 2 25 17 40 32 24 23 28 36 28 81 0 33 -6 62 -16 77 -38
53 -156 77 -229 47 -66 -28 -93 -114 -61 -191 13 -29 20 -35 45 -35 27 0 31 4
31 28 0 57 10 72 46 72 l34 0 0 -59 c0 -32 -3 -80 -7 -106 l-6 -48 -91 7
c-106 7 -116 15 -142 104 -31 107 1 234 73 289 76 58 195 65 293 15z m-9301
-124 c1 -24 -7 -32 -50 -53 l-51 -26 7 -77 c9 -110 9 -109 69 -123 l54 -12 6
-50 c4 -27 6 -51 4 -52 -2 -1 -113 28 -248 64 l-245 67 0 54 0 54 220 116 220
117 6 -26 c4 -14 7 -38 8 -53z m9146 -419 c116 -17 214 -35 218 -39 10 -9 -27
-230 -44 -262 -32 -63 -89 -87 -161 -68 -88 24 -123 86 -107 193 14 101 19 93
-76 108 -92 13 -92 13 -79 78 5 23 11 30 23 27 9 -3 111 -19 226 -37z m-9080
-85 c3 -25 5 -47 3 -48 -6 -6 -463 -84 -467 -80 -2 1 -6 23 -8 48 l-5 45 38 7
c155 30 393 72 410 73 18 1 23 -6 29 -45z m-29 -213 c24 -11 50 -33 62 -54 19
-29 86 -256 79 -263 -10 -10 -452 -113 -457 -107 -14 15 -52 194 -52 243 0 57
26 108 75 142 79 56 215 74 293 39z m9083 -188 c84 -21 156 -43 158 -49 8 -20
-17 -96 -30 -91 -7 2 -83 21 -171 43 -145 35 -160 37 -184 23 -38 -21 -58 -80
-42 -119 14 -34 42 -44 248 -95 103 -25 112 -29 112 -50 0 -13 -4 -35 -9 -49
l-10 -24 -169 43 c-186 47 -196 51 -231 89 -50 53 -34 204 27 270 55 58 96 59
301 9z m-8884 -297 l17 -44 -115 -138 c-63 -77 -114 -140 -113 -141 1 -1 66
20 144 47 l143 50 8 -23 c26 -68 41 -57 -190 -137 -116 -40 -218 -73 -226 -74
-9 -1 -21 15 -29 38 -17 46 -26 29 114 200 57 70 101 126 100 126 -2 0 -64
-20 -138 -45 -74 -25 -140 -45 -146 -45 -13 0 -40 68 -30 77 6 7 415 150 433
152 6 0 19 -19 28 -43z m8698 -197 c142 -46 217 -75 214 -82 -2 -7 -23 -69
-46 -139 -35 -106 -48 -132 -77 -158 -39 -34 -83 -39 -139 -16 -41 17 -65 52
-72 104 l-5 38 -43 -22 c-43 -21 -182 -60 -190 -52 -2 2 3 26 11 53 l14 50 99
28 c114 33 135 45 149 86 l11 30 -95 31 c-87 29 -94 34 -88 53 14 46 24 67 31
67 4 0 105 -32 226 -71z m-8530 -261 c13 -33 14 -44 4 -50 -10 -6 -359 -154
-408 -173 -11 -4 -21 5 -34 35 -10 22 -16 43 -12 46 6 6 418 183 428 184 3 0
13 -19 22 -42z m8190 -328 c61 -31 75 -113 28 -161 -64 -64 -171 -20 -171 69
0 49 38 99 78 104 33 5 31 5 65 -12z m-8060 -30 c38 -42 37 -88 -4 -135 -43
-48 -87 -49 -135 -1 -53 53 -45 117 19 157 42 26 84 18 120 -21z"/>
<path d="M7868 11864 c-65 -34 -107 -169 -74 -233 35 -67 116 -89 177 -48 69
46 111 177 75 232 -38 58 -120 81 -178 49z"/>
<path d="M4014 11841 c-18 -10 -39 -30 -48 -42 -35 -51 -12 -152 50 -216 35
-37 46 -43 83 -43 114 0 163 97 107 215 -32 68 -65 96 -118 102 -31 3 -52 -1
-74 -16z"/>
<path d="M8795 11443 c-76 -20 -146 -148 -124 -227 23 -82 132 -116 198 -61
63 54 97 138 80 200 -16 57 -96 103 -154 88z"/>
<path d="M10490 8819 c0 -26 23 -99 32 -99 5 0 39 21 76 48 l67 47 -45 7 c-70
10 -130 9 -130 -3z"/>
<path d="M10770 8372 c-14 -1 -39 -5 -56 -7 l-31 -5 12 -74 c13 -85 26 -106
66 -106 49 0 62 23 54 104 -9 85 -12 92 -45 88z"/>
<path d="M10660 7750 c0 -32 3 -61 8 -63 4 -2 43 11 87 29 49 20 74 35 65 38
-8 3 -48 17 -87 30 l-73 25 0 -59z"/>
<path d="M1275 7107 l-80 -40 85 -22 85 -21 3 25 c2 14 -1 42 -5 62 l-8 37
-80 -41z"/>
<path d="M10676 6720 c-18 -94 2 -140 62 -140 40 0 61 29 69 98 6 55 13 50
-88 68 -34 5 -36 4 -43 -26z"/>
<path d="M1405 6456 c-97 -30 -122 -69 -104 -158 6 -29 14 -56 18 -60 5 -6
290 57 299 67 9 8 -31 122 -51 143 -16 17 -31 22 -71 21 -28 0 -69 -6 -91 -13z"/>
<path d="M10447 5700 c-23 -83 -22 -106 8 -126 42 -27 71 -12 94 51 38 102 39
101 -15 119 -26 9 -53 16 -59 16 -7 0 -19 -27 -28 -60z"/>
<path d="M5728 11462 c-30 -18 -58 -67 -58 -101 0 -12 7 -37 14 -56 13 -31 19
-35 52 -35 31 0 35 3 29 18 -24 55 -7 122 31 122 30 0 74 -31 109 -76 46 -62
46 -84 0 -84 -33 0 -35 -2 -35 -35 0 -33 2 -35 33 -35 l34 0 6 -107 c4 -58 7
-153 7 -210 l0 -103 41 0 42 0 -4 213 -4 212 38 3 c34 3 37 6 37 33 0 27 -3
29 -38 29 -37 0 -39 2 -66 61 -31 67 -84 133 -127 155 -38 19 -108 17 -141 -4z"/>
<path d="M7102 11284 c-42 -29 -19 -96 33 -96 52 0 75 67 33 96 -12 9 -27 16
-33 16 -6 0 -21 -7 -33 -16z"/>
<path d="M5465 11212 l-290 -47 3 -30 c2 -16 5 -32 7 -34 2 -2 63 6 136 18 73
12 133 20 134 19 1 -2 10 -57 20 -122 l18 -120 -29 -23 c-36 -29 -83 -30 -118
-2 -57 45 -18 129 60 129 l34 0 -17 36 c-16 33 -20 35 -52 29 -83 -16 -131
-65 -131 -135 0 -114 107 -179 215 -131 26 12 49 21 51 21 2 0 4 -13 4 -29 0
-49 9 -61 45 -61 19 0 36 3 38 8 3 4 -4 59 -14 122 -18 111 -18 116 0 140 24
33 98 41 124 12 37 -41 17 -121 -34 -137 -19 -6 -24 -30 -13 -59 13 -33 102 7
134 59 31 50 25 142 -11 181 -53 57 -125 70 -191 34 l-36 -19 -7 40 c-4 22 -5
43 -2 46 3 3 76 10 161 16 l156 10 0 35 c0 31 -2 34 -25 30 -14 -3 -28 -1 -31
3 -8 13 -24 11 -339 -39z"/>
<path d="M6546 11205 c-15 -40 -7 -53 37 -60 67 -11 105 -31 127 -67 26 -44
25 -74 -5 -103 -28 -29 -84 -33 -125 -10 -37 21 -47 18 -52 -16 -4 -25 -1 -33
14 -37 14 -3 18 -14 18 -47 0 -105 27 -143 118 -169 74 -21 98 -20 105 2 2 9
8 25 12 35 6 14 2 17 -24 17 -50 0 -110 29 -127 62 -18 35 -11 80 10 72 24 -9
91 14 115 40 33 35 45 100 26 139 -8 16 -13 32 -11 34 2 2 45 -4 96 -14 l92
-17 -6 -41 c-4 -22 -11 -56 -17 -77 l-9 -36 -58 13 c-31 8 -57 13 -58 12 -1
-1 -5 -16 -8 -34 l-7 -32 61 -12 c39 -7 59 -16 57 -23 -3 -7 -13 -50 -22 -95
-19 -92 -15 -101 36 -101 25 0 26 4 48 108 12 59 32 150 43 203 l20 96 36 -8
c39 -9 52 0 52 36 0 18 -25 26 -277 79 -153 33 -285 61 -294 64 -9 2 -19 -4
-23 -13z"/>
<path d="M4368 11146 c-83 -31 -128 -82 -128 -146 0 -47 18 -80 58 -106 l33
-23 -103 -55 c-202 -108 -294 -156 -355 -188 -35 -18 -63 -39 -63 -48 -1 -8
-55 -52 -120 -98 l-120 -83 17 -24 c10 -14 21 -25 25 -25 4 0 42 25 85 55 78
55 78 55 98 35 19 -20 19 -20 -5 -37 -36 -25 -71 -64 -81 -90 -17 -44 18 -93
66 -93 30 0 31 -2 27 -31 -8 -54 33 -99 91 -99 63 1 162 73 199 145 27 54 26
53 52 20 l23 -29 32 23 31 23 -33 46 c-46 64 -192 274 -201 289 -4 8 23 28 77
57 46 25 87 46 90 46 3 0 49 -83 103 -184 l97 -184 34 16 c18 9 33 19 33 23 0
5 -43 89 -95 187 -52 98 -95 181 -95 184 0 3 14 11 31 18 19 8 28 18 25 26
-15 37 -16 46 -1 21 12 -21 21 -27 33 -21 46 19 50 14 133 -166 45 -96 85
-179 90 -184 10 -11 69 12 69 28 0 6 -39 92 -85 191 -74 156 -83 181 -69 190
46 29 46 29 33 58 -9 19 -17 26 -28 21 -9 -3 -28 -11 -43 -17 -80 -32 -152
101 -85 159 43 37 101 40 214 11 96 -24 99 -24 138 -7 l40 17 -30 12 c-106 43
-274 61 -337 37z m-370 -681 c39 -57 72 -115 72 -128 0 -34 -60 -128 -99 -154
-44 -30 -76 -29 -96 1 -15 22 -15 27 -1 54 9 17 32 40 51 52 34 21 35 23 19
41 -23 26 -28 25 -78 -21 -48 -45 -70 -50 -86 -19 -10 17 -6 25 27 57 21 21
49 45 63 54 l25 16 -33 45 -32 46 42 30 c24 17 45 30 48 30 3 0 38 -47 78
-104z"/>
<path d="M4813 11062 c-145 -47 -263 -89 -263 -93 0 -4 4 -19 9 -33 l10 -25
80 27 79 26 37 -29 c44 -33 74 -96 82 -170 5 -49 4 -54 -21 -70 -47 -31 -96
10 -96 81 0 28 2 27 -39 13 -25 -9 -31 -16 -31 -40 0 -17 7 -43 15 -59 43 -84
193 -78 238 10 36 69 0 201 -69 258 -27 22 -34 33 -23 37 54 20 133 45 135 43
1 -2 30 -91 64 -198 34 -107 64 -197 65 -198 5 -6 75 18 75 25 0 3 -27 90 -60
193 -33 103 -60 192 -60 198 0 6 15 16 34 22 33 11 34 13 24 41 -5 16 -13 29
-16 28 -4 0 -125 -39 -269 -87z"/>
<path d="M7211 11028 c-6 -17 -11 -32 -11 -33 0 -2 27 -13 61 -25 102 -38 140
-120 83 -177 -21 -21 -32 -25 -65 -20 -22 3 -55 17 -73 31 l-34 26 -12 -33
c-9 -28 -8 -34 8 -44 16 -12 17 -19 8 -73 -14 -86 3 -118 85 -159 81 -41 114
-41 127 -1 10 28 9 30 -16 36 -79 17 -123 53 -124 101 -1 43 8 53 41 47 95
-19 183 84 147 171 -15 35 -15 37 2 30 9 -4 45 -18 78 -30 l61 -24 12 26 c7
14 8 30 4 34 -4 4 -80 35 -168 69 -88 34 -170 66 -182 70 -18 8 -23 4 -32 -22z"/>
<path d="M3862 10911 c-10 -6 -11 -19 -7 -45 6 -30 11 -36 24 -29 9 4 45 8 81
8 51 0 77 -6 122 -28 54 -27 98 -30 98 -7 0 13 -89 64 -153 88 -58 22 -141 29
-165 13z"/>
<path d="M7710 10808 c-45 -31 -46 -41 -6 -61 30 -14 36 -14 46 -1 15 17 42
18 58 2 31 -31 -6 -92 -55 -90 -33 1 -84 21 -120 48 -22 16 -23 15 -43 -27
-28 -62 -27 -146 3 -189 31 -46 105 -89 173 -100 31 -5 59 -11 61 -14 3 -3 -7
-27 -23 -55 -15 -28 -25 -52 -23 -54 43 -31 62 -38 70 -26 5 8 51 89 101 181
51 92 97 168 101 168 13 0 156 -104 156 -114 1 -4 -53 -83 -119 -174 l-121
-166 28 -22 c15 -13 30 -23 34 -24 3 0 60 76 128 170 l123 170 25 -20 c33 -25
44 -25 65 4 17 23 16 23 -110 117 -150 110 -302 219 -306 219 -2 0 -11 -12
-21 -26 -12 -18 -13 -29 -6 -38 6 -7 8 -16 4 -19 -3 -4 -2 -7 3 -7 6 0 19 -6
29 -14 17 -12 16 -17 -29 -100 -55 -101 -73 -113 -148 -96 -60 12 -96 30 -127
64 -19 20 -23 32 -18 62 3 20 8 38 10 40 2 3 24 -5 48 -16 65 -29 119 -26 151
8 75 77 56 165 -44 207 -49 20 -59 19 -98 -7z"/>
<path d="M7433 10701 c-10 -29 -10 -29 44 -50 30 -12 61 -21 68 -21 11 0 24
28 25 52 0 6 -102 48 -118 48 -4 0 -13 -13 -19 -29z"/>
<path d="M5960 10609 c-509 -40 -1043 -222 -1455 -493 -390 -257 -607 -502
-819 -926 -174 -349 -257 -671 -258 -1005 0 -286 58 -509 189 -727 46 -76 47
-77 67 -60 21 17 21 17 2 -5 -19 -22 -18 -23 40 -95 290 -362 627 -583 978
-644 138 -24 369 -15 501 19 186 49 328 113 488 220 l96 64 5 -26 c31 -156 46
-337 46 -553 0 -98 -4 -178 -9 -178 -4 0 -48 18 -97 41 -630 291 -1200 313
-1724 67 -186 -87 -366 -215 -501 -355 l-66 -68 -903 -1990 c-498 -1094 -918
-2015 -935 -2045 -107 -192 -125 -307 -58 -360 51 -40 124 -22 268 65 130 78
374 201 545 273 536 226 1096 336 1615 318 571 -19 1093 -148 1539 -379 136
-70 140 -73 170 -128 66 -118 146 -192 281 -256 72 -34 80 -35 188 -36 236 -1
392 80 471 243 l32 65 153 77 c585 293 1167 431 1756 415 412 -12 774 -82
1145 -224 136 -52 383 -170 477 -228 l42 -25 15 22 c9 12 16 18 16 12 0 -5 -6
-16 -12 -23 -17 -16 0 -29 114 -87 105 -53 168 -69 212 -54 34 11 66 55 66 90
0 11 -367 767 -817 1678 -449 911 -941 1911 -1094 2222 -153 311 -288 576
-302 590 -34 36 -235 142 -352 185 -237 88 -453 120 -745 112 -224 -6 -410
-34 -605 -91 -95 -27 -240 -56 -281 -56 -12 0 49 606 62 619 2 2 22 -13 45
-33 107 -97 263 -177 426 -219 76 -19 113 -22 278 -22 171 1 200 3 295 27 467
117 803 405 1041 893 70 143 155 381 184 515 22 102 30 312 16 440 -29 266
-102 518 -217 749 -119 241 -237 391 -444 569 -332 285 -656 488 -991 621
-295 116 -509 164 -820 181 -194 11 -210 11 -359 -1z m350 -119 c80 -6 192
-17 250 -26 491 -74 1045 -350 1485 -739 39 -34 77 -64 86 -67 8 -3 45 -39 81
-79 271 -305 431 -704 469 -1166 13 -164 7 -239 -32 -392 -59 -237 -185 -515
-317 -700 -217 -306 -538 -517 -879 -576 -108 -19 -309 -19 -405 -1 -158 31
-325 112 -430 208 -34 32 -36 37 -28 71 26 118 166 245 358 327 77 32 112 39
94 17 -17 -21 -25 -109 -13 -153 35 -131 201 -235 377 -238 77 -1 85 1 175 46
52 25 139 78 194 117 55 39 111 74 124 78 20 5 136 -7 214 -24 l27 -5 0 89 c0
158 -53 278 -179 404 -84 83 -157 136 -271 195 l-75 39 -197 3 c-142 3 -203 0
-220 -9 -44 -23 -89 -64 -135 -123 -47 -59 -47 -59 -54 -160 -4 -56 -8 -106
-8 -112 -1 -6 -32 -22 -70 -34 -39 -12 -113 -46 -165 -75 -93 -51 -118 -58
-76 -20 15 14 20 31 20 74 0 38 8 73 25 109 79 170 310 430 586 658 188 155
182 149 177 187 l-4 34 61 12 c136 28 277 108 404 227 102 96 127 106 274 112
l119 5 -7 61 c-4 33 -13 73 -20 87 -32 61 -272 258 -296 243 -7 -4 -9 -3 -6 3
8 13 -119 72 -230 107 -220 69 -430 51 -578 -49 -101 -68 -127 -155 -80 -268
16 -39 17 -39 -80 -67 -80 -24 -274 -169 -497 -373 -98 -88 -105 -86 -67 26
49 149 174 321 403 555 102 103 119 125 110 140 -34 54 -126 54 -209 -1 -95
-64 -242 -260 -434 -582 -97 -162 -111 -193 -126 -277 -3 -21 -10 -38 -15 -38
-22 0 -29 91 -36 437 l-7 372 24 5 c13 3 42 8 64 11 117 18 255 88 308 158 16
21 40 63 55 95 25 53 27 67 27 187 0 175 -16 228 -82 275 -146 104 -327 315
-388 454 -14 31 -32 59 -41 63 -9 3 -31 -1 -49 -10 -29 -14 -36 -25 -56 -93
-32 -109 -82 -182 -150 -218 -82 -44 -178 -148 -227 -247 -146 -293 -13 -562
326 -655 l62 -17 0 -399 c0 -219 -2 -398 -4 -398 -2 0 -18 24 -34 53 -108 190
-554 747 -625 781 -63 30 -110 -11 -93 -80 4 -14 29 -50 57 -79 27 -29 70 -88
95 -131 44 -76 174 -337 174 -349 0 -3 -15 5 -32 18 -64 48 -176 111 -353 200
-99 49 -182 91 -184 93 -2 2 4 24 13 50 21 61 20 147 -1 210 -34 101 -184 214
-321 243 -313 65 -776 -181 -922 -490 -32 -68 -39 -133 -17 -162 10 -15 20
-15 79 -6 76 12 178 1 244 -27 21 -9 65 -36 98 -60 79 -60 168 -109 257 -142
66 -24 88 -27 199 -27 110 0 130 3 166 22 62 33 119 104 144 178 21 63 22 64
48 54 60 -23 206 -101 279 -150 98 -65 292 -260 358 -359 154 -231 258 -541
280 -830 l6 -85 -23 39 c-13 21 -56 91 -96 155 -266 420 -667 751 -1079 890
-139 47 -203 39 -203 -27 0 -40 8 -46 80 -66 82 -22 197 -79 298 -148 96 -65
344 -311 442 -438 91 -119 254 -364 243 -367 -7 -3 -372 132 -377 139 -2 2
-20 37 -42 78 -133 258 -412 336 -753 211 -42 -16 -75 -33 -74 -39 2 -6 -3 -9
-10 -6 -19 7 -167 -144 -223 -229 -55 -81 -103 -197 -111 -269 l-6 -51 29 7
c16 4 70 9 120 13 126 8 177 -6 250 -68 123 -105 252 -144 446 -136 103 4 121
7 161 31 76 44 131 122 162 229 l17 58 41 -6 c182 -28 370 -106 435 -180 22
-25 45 -45 53 -45 46 0 -169 -147 -314 -215 -187 -87 -333 -120 -532 -118
-128 0 -165 4 -248 26 -173 46 -338 129 -484 244 -143 113 -346 329 -407 434
-83 142 -101 178 -133 267 -108 300 -105 634 9 1017 106 358 335 752 576 988
38 38 78 74 89 80 11 7 71 50 134 98 378 283 813 468 1290 548 230 39 366 46
589 31z m864 -1677 c-14 -32 -16 -126 -4 -166 15 -51 81 -116 153 -151 l57
-28 -55 -34 c-31 -18 -106 -71 -168 -117 -62 -45 -141 -104 -177 -129 -71 -50
-135 -114 -222 -223 -122 -153 -287 -415 -332 -525 -27 -65 -70 -130 -87 -130
-6 0 -9 121 -7 348 l3 347 28 60 c15 32 38 73 51 90 13 16 24 33 24 38 1 4 16
35 33 69 66 130 290 322 599 514 91 56 117 66 104 37z m-2184 -534 c52 -28
106 -59 120 -70 16 -13 9 -11 -20 6 -65 38 -263 135 -277 135 -6 0 -15 5 -18
10 -10 15 88 -25 195 -81z m196 -120 c3 -6 -5 -3 -20 6 -14 10 -26 19 -26 22
0 7 39 -17 46 -28z m80 -61 c4 -7 -9 1 -29 16 -20 16 -37 30 -37 33 0 7 58
-36 66 -49z m101 -81 c4 -6 -14 6 -40 27 -26 21 -47 40 -47 43 0 7 78 -56 87
-70z m128 -117 c60 -60 107 -110 105 -110 -3 0 -55 50 -115 110 -60 61 -107
110 -105 110 3 0 55 -49 115 -110z m-688 -86 c-3 -3 -12 -4 -19 -1 -8 3 -5 6
6 6 11 1 17 -2 13 -5z m66 -11 c-7 -2 -19 -2 -25 0 -7 3 -2 5 12 5 14 0 19 -2
13 -5z m57 -13 c18 -12 2 -12 -25 0 -13 6 -15 9 -5 9 8 0 22 -4 30 -9z m81
-39 c24 -16 62 -48 84 -72 l40 -44 -50 47 c-28 26 -70 58 -95 72 -25 14 -40
26 -34 26 5 0 30 -13 55 -29z m624 -1 c10 -11 16 -20 13 -20 -3 0 -13 9 -23
20 -10 11 -16 20 -13 20 3 0 13 -9 23 -20z m46 -57 c13 -16 12 -17 -3 -4 -10
7 -18 15 -18 17 0 8 8 3 21 -13z m30 -40 c13 -16 12 -17 -3 -4 -10 7 -18 15
-18 17 0 8 8 3 21 -13z m2404 -673 c10 -11 16 -20 13 -20 -3 0 -13 9 -23 20
-10 11 -16 20 -13 20 3 0 13 -9 23 -20z m-3045 -670 c194 -32 405 -100 610
-197 63 -29 123 -55 134 -57 18 -3 20 -10 17 -112 -15 -733 -289 -1484 -710
-1949 -81 -89 -178 -236 -187 -282 -21 -112 100 -85 371 82 180 110 298 195
339 241 64 75 118 92 159 52 12 -13 26 -22 30 -20 5 1 6 -2 2 -8 -18 -30 146
-367 218 -446 l47 -52 0 -671 c0 -632 -1 -671 -17 -671 -10 0 -38 -9 -62 -20
-24 -11 -45 -19 -47 -17 -2 2 15 49 37 106 37 98 39 104 22 117 -20 15 -43 18
-43 6 0 -5 -7 -17 -15 -28 -14 -17 -14 -16 -1 13 18 37 26 30 -98 91 -129 62
-282 124 -453 182 -815 278 -1648 324 -2402 132 l-149 -38 58 165 c62 175 572
1617 833 2352 85 239 196 544 248 677 l93 242 77 30 c139 54 279 84 474 104
76 8 300 -6 415 -24z m2610 -45 c108 -18 249 -53 331 -84 44 -17 56 -26 52
-39 -2 -9 275 -741 616 -1627 341 -885 618 -1611 617 -1613 -2 -1 -64 3 -137
10 -213 20 -955 17 -1149 -5 -445 -50 -820 -142 -1120 -275 -196 -87 -399
-211 -471 -289 -15 -15 -34 -53 -44 -83 -10 -30 -20 -58 -24 -62 -4 -4 -29 1
-56 11 l-50 19 -3 691 -2 691 23 38 c13 20 48 84 77 141 65 126 122 191 169
191 17 0 62 -15 99 -34 141 -71 255 -109 421 -140 46 -9 101 -16 123 -16 l40
0 -81 90 c-154 172 -239 301 -351 532 -109 227 -209 549 -240 773 -7 50 -21
133 -31 185 -28 147 -49 371 -51 569 -2 98 0 182 3 185 3 4 46 11 95 17 49 6
103 17 121 25 46 21 242 70 353 89 215 37 479 41 670 10z m1216 -1716 c349
-827 725 -1715 834 -1974 109 -258 197 -471 196 -473 -2 -1 -47 15 -100 35
l-98 38 -744 1935 c-409 1064 -747 1944 -750 1955 -6 18 -5 19 10 4 9 -8 302
-692 652 -1520z m-5155 1414 c-8 -17 -356 -806 -741 -1683 -98 -223 -305 -693
-460 -1045 -155 -352 -347 -788 -427 -970 l-145 -330 -115 -67 c-63 -38 -113
-62 -110 -55 3 6 229 503 502 1102 474 1041 611 1341 1106 2430 l219 480 82
77 c83 77 107 94 89 61z m5422 -1633 c338 -685 746 -1510 906 -1834 160 -324
289 -591 288 -593 -2 -2 -53 21 -113 51 -60 29 -132 63 -160 75 l-50 22 -332
782 c-182 430 -516 1219 -743 1752 -441 1039 -425 1002 -416 995 3 -3 282
-565 620 -1250z m-5572 933 c-12 -20 -14 -14 -5 12 4 9 9 14 11 11 3 -2 0 -13
-6 -23z m-532 -1344 c-286 -723 -552 -1394 -591 -1492 -38 -98 -68 -180 -66
-182 6 -6 122 38 130 50 4 5 8 7 8 3 0 -4 33 4 73 18 244 83 523 142 837 176
168 18 630 15 820 -6 461 -49 954 -168 1360 -327 167 -65 157 -57 135 -116
-10 -26 -21 -52 -25 -56 -4 -4 -40 5 -81 21 -199 78 -508 170 -764 226 -441
96 -806 133 -1230 123 -516 -12 -952 -98 -1379 -274 -59 -24 -110 -43 -111
-41 -2 2 62 152 141 333 80 182 255 580 389 885 226 516 617 1407 793 1807 41
95 77 171 79 170 1 -2 -231 -595 -518 -1318z m5991 -1140 c91 -6 196 -13 235
-17 l69 -7 25 -58 c13 -31 22 -60 18 -63 -3 -3 -61 0 -129 6 -193 18 -767 24
-963 11 -720 -51 -1339 -227 -1742 -497 -51 -34 -93 -60 -93 -57 0 32 48 150
69 169 70 67 281 188 451 259 296 125 733 219 1170 254 156 12 701 12 890 0z
m-4645 -24 c476 -53 978 -191 1377 -378 l98 -45 -21 -51 -21 -50 -52 21 c-548
221 -1102 350 -1661 388 -461 31 -988 -22 -1380 -139 -55 -16 -101 -28 -104
-26 -7 8 22 66 38 74 9 5 77 29 151 54 243 81 560 143 845 167 153 12 562 4
730 -15z m4530 -235 c288 -13 502 -31 520 -44 12 -10 106 -237 100 -244 -1 -1
-22 5 -46 13 -85 30 -345 94 -484 119 -297 54 -371 60 -705 61 -282 0 -331 -3
-470 -24 -441 -67 -843 -217 -1199 -448 -46 -30 -84 -53 -86 -51 -1 2 -7 18
-14 37 -8 25 -8 38 0 47 21 26 172 116 297 178 536 266 1275 392 2087 356z
m-7285 -916 c0 -8 -4 -12 -10 -9 -5 3 -10 10 -10 16 0 5 5 9 10 9 6 0 10 -7
10 -16z"/>
<path d="M5589 3460 c-72 -21 -129 -105 -129 -187 0 -141 132 -237 238 -173
l32 20 0 -23 c0 -69 -44 -137 -90 -137 -27 0 -60 27 -60 48 0 8 -18 12 -50 12
-57 0 -61 -9 -33 -67 30 -64 113 -95 194 -73 58 16 123 81 140 140 18 60 18
254 0 305 -38 111 -138 167 -242 135z m105 -121 c20 -23 26 -41 26 -78 0 -64
-28 -101 -75 -101 -48 0 -75 37 -75 102 0 49 13 86 34 100 26 17 65 7 90 -23z"/>
<path d="M5051 3425 c-11 -20 -47 -52 -80 -73 -60 -37 -60 -37 -61 -84 0 -27
2 -48 5 -48 12 0 104 50 110 60 20 32 25 -7 25 -195 l0 -205 55 0 55 0 0 290
0 290 -44 0 c-40 0 -46 -3 -65 -35z"/>
<path d="M7180 3450 c0 -20 -80 -97 -120 -115 -39 -17 -40 -20 -40 -67 0 -60
8 -60 88 -8 l62 40 0 -210 0 -210 55 0 55 0 0 290 0 290 -50 0 c-27 0 -50 -5
-50 -10z"/>
<path d="M6479 3448 c-5 -14 -56 -294 -54 -296 1 -2 19 -6 39 -9 27 -4 47 0
79 17 66 35 121 14 136 -53 18 -75 -17 -147 -71 -147 -41 0 -63 14 -78 51 -12
27 -17 30 -43 25 -16 -3 -40 -6 -53 -6 -32 0 -32 -35 -1 -81 70 -105 215 -116
303 -24 85 88 82 225 -6 299 -35 29 -101 50 -130 42 -62 -18 -58 -21 -47 34
l10 50 103 0 104 0 0 50 0 50 -145 0 c-80 0 -145 -1 -146 -2z"/>
<path d="M8422 10378 l-23 -23 138 -132 138 -132 -30 -30 -30 -31 -87 80 c-87
81 -158 123 -187 112 -96 -34 -131 -138 -69 -208 56 -63 121 -76 167 -33 27
26 26 40 -3 68 l-24 23 -21 -21 c-26 -26 -36 -26 -61 -1 -24 24 -25 38 -4 68
30 43 65 30 156 -57 l83 -80 -55 -58 c-30 -32 -71 -75 -90 -96 l-34 -37 27
-28 28 -27 67 70 c37 39 102 108 145 153 l79 84 30 -29 30 -28 19 24 c11 13
18 28 17 32 -3 7 -377 359 -382 359 -1 0 -12 -10 -24 -22z"/>
<path d="M3156 10362 c-9 -17 -16 -33 -16 -35 0 -2 39 -1 86 1 64 3 101 0 145
-13 32 -10 59 -21 59 -25 0 -3 -13 -18 -28 -33 -22 -22 -31 -24 -41 -14 -8 8
-44 12 -109 12 -77 -1 -109 -6 -154 -24 -48 -18 -58 -27 -58 -46 0 -52 6 -53
90 -11 64 31 95 40 157 46 l77 6 -115 -108 c-63 -59 -114 -112 -114 -117 0 -5
-31 -44 -69 -86 l-69 -77 24 -19 c29 -23 33 -23 49 -4 10 12 22 6 80 -46 l68
-60 62 16 c34 9 65 15 70 13 4 -2 -1 -37 -10 -78 -20 -81 -17 -90 31 -90 26 0
26 2 49 140 13 77 26 140 30 140 4 0 13 -7 20 -15 7 -9 34 -33 60 -55 l47 -39
27 28 27 28 -156 144 -156 144 68 63 c52 48 70 59 78 50 7 -7 69 -77 140 -155
70 -79 131 -143 135 -143 3 0 17 11 30 25 23 25 23 25 4 47 -23 28 -187 211
-228 255 l-30 33 27 28 27 28 -25 24 -25 24 -29 -28 -28 -27 -71 37 c-58 30
-84 38 -145 42 l-75 5 -16 -31z m227 -492 c-3 -25 -9 -50 -14 -56 -5 -6 -35
-16 -66 -23 l-58 -11 -54 54 -54 54 63 71 64 71 62 -58 c62 -57 63 -57 57
-102z"/>
<path d="M9123 9652 l-23 -17 41 -68 c43 -73 44 -93 6 -134 -32 -36 -78 -31
-116 13 -18 20 -34 49 -38 65 l-5 29 -30 -18 c-22 -13 -28 -22 -23 -39 4 -16
-6 -37 -35 -75 -70 -92 -73 -145 -14 -239 35 -56 70 -79 121 -79 38 0 49 -5
79 -37 19 -20 33 -37 32 -38 -2 -1 -24 -14 -50 -29 -27 -16 -48 -32 -48 -37 0
-13 31 -59 40 -59 4 0 76 42 161 93 216 131 195 123 216 87 20 -34 25 -36 58
-14 l23 15 -179 300 c-99 164 -183 299 -187 299 -4 0 -17 -8 -29 -18z m171
-346 c42 -68 76 -127 76 -132 0 -5 -41 -33 -91 -62 -86 -51 -91 -53 -114 -38
-31 20 -50 78 -35 105 23 44 104 30 118 -21 4 -18 5 -18 28 3 32 30 30 41 -16
83 -52 47 -78 52 -133 28 -47 -21 -77 -61 -77 -102 0 -29 -50 -27 -77 3 -28
30 -53 81 -53 107 0 27 22 70 49 94 20 18 21 18 55 -12 19 -17 44 -33 55 -37
49 -15 131 39 131 86 0 11 2 19 4 19 2 0 38 -56 80 -124z"/>
<path d="M2702 9428 c-50 -84 -244 -439 -241 -442 15 -13 52 -26 57 -21 4 3
23 34 42 68 33 56 39 62 72 65 68 6 81 -58 27 -132 -21 -27 -21 -30 -5 -42 28
-20 113 -37 151 -30 74 14 155 125 155 213 0 50 8 53 65 18 22 -14 43 -25 47
-25 7 0 38 53 38 64 0 2 -75 46 -167 97 -93 51 -174 96 -180 102 -10 7 -9 15
2 37 14 27 13 30 -7 44 -30 22 -34 21 -56 -16z m131 -197 c50 -28 57 -37 59
-64 2 -55 -3 -91 -18 -120 -27 -51 -51 -67 -99 -67 l-45 0 20 37 c21 40 26 93
10 122 -13 25 -64 45 -95 37 -14 -4 -25 -4 -25 -2 0 5 31 62 57 104 l14 23 32
-19 c18 -11 58 -34 90 -51z"/>
<path d="M9515 8958 c-11 -6 -21 -12 -23 -13 -1 -1 20 -60 47 -131 49 -130 50
-143 10 -144 -9 0 -22 19 -33 53 -22 61 -59 114 -90 129 -37 16 -93 -13 -112
-58 -15 -35 -14 -41 6 -98 51 -146 51 -158 -6 -158 -64 0 -127 161 -75 194 16
10 17 16 9 42 -6 17 -14 35 -18 39 -12 13 -69 -60 -76 -98 -13 -71 37 -193 97
-236 61 -43 147 -21 175 47 15 37 12 50 -36 160 -25 56 -22 84 8 84 27 0 35
-13 72 -105 17 -44 33 -81 35 -83 1 -2 26 6 54 17 l52 20 19 -44 c19 -43 20
-44 50 -34 22 8 29 16 25 28 -25 78 -153 395 -160 397 -6 2 -19 -2 -30 -8z"/>
<path d="M2431 8885 c-12 -34 -14 -35 -64 -35 -65 0 -158 -22 -192 -44 -86
-56 -86 -196 0 -232 64 -26 94 -17 109 34 7 19 4 22 -22 22 -38 0 -82 35 -82
65 0 30 37 59 100 80 82 27 103 17 85 -40 -5 -16 0 -23 25 -32 30 -11 32 -10
42 18 5 16 14 29 19 29 6 0 94 -34 196 -75 142 -58 188 -72 195 -63 14 22 22
62 12 65 -214 84 -369 152 -368 164 1 8 4 23 8 35 5 16 0 23 -19 32 -14 7 -27
12 -28 12 -2 0 -9 -16 -16 -35z"/>
<path d="M2311 8623 c-5 -21 -33 -123 -60 -228 -28 -104 -51 -195 -51 -201 0
-17 51 -28 60 -14 4 7 24 77 45 156 21 80 41 147 45 149 6 4 81 -13 88 -20 2
-2 -9 -27 -24 -57 -37 -69 -40 -171 -8 -215 33 -46 100 -75 161 -70 59 4 78
17 123 86 l30 45 -26 27 -27 28 -28 -44 c-34 -54 -60 -69 -105 -60 -46 8 -74
40 -74 83 0 45 17 102 40 132 l18 24 103 -28 c57 -15 111 -29 120 -32 11 -3
19 6 27 33 6 20 10 38 9 39 -1 1 -87 25 -192 53 -104 28 -195 53 -202 56 -9 3
-9 13 -3 37 11 36 7 43 -32 52 -25 6 -28 3 -37 -31z"/>
<path d="M9043 8569 c-35 -13 -47 -46 -29 -74 29 -44 71 -41 97 7 20 36 -27
83 -68 67z"/>
<path d="M9713 8352 c-10 -6 -10 -25 2 -87 l15 -79 -32 -33 c-68 -71 -241 -86
-248 -23 -7 52 35 84 94 73 28 -6 28 -5 21 28 -10 47 -12 49 -48 49 -75 0
-133 -69 -124 -148 9 -85 56 -122 155 -122 73 0 124 19 169 62 28 27 32 28 36
12 8 -28 27 -137 24 -139 -1 -1 -92 -19 -202 -40 -110 -21 -202 -40 -203 -41
-2 -1 -1 -20 3 -42 l6 -39 197 39 c108 21 202 38 208 38 6 0 14 -13 18 -30 4
-24 11 -30 30 -30 14 0 27 4 31 10 3 5 -18 131 -47 280 -48 248 -54 270 -73
270 -11 0 -26 -4 -32 -8z"/>
<path d="M2185 8088 c-6 -29 -54 -382 -52 -384 1 -1 16 -5 33 -8 l32 -7 7 53
c10 79 22 112 55 143 37 36 85 38 112 6 22 -28 24 -100 3 -140 -17 -34 -12
-41 31 -41 22 0 33 5 37 18 3 15 17 20 64 24 100 9 132 47 147 169 l7 56 -32
7 c-48 9 -49 9 -49 -39 0 -77 -36 -125 -93 -125 -22 0 -25 5 -32 54 -8 68 -34
102 -87 117 -45 12 -84 5 -111 -18 -9 -9 -19 -14 -21 -12 -2 2 0 31 5 63 12
72 7 86 -25 86 -18 0 -27 -6 -31 -22z"/>
<path d="M9820 7671 l0 -29 -109 -4 c-118 -3 -141 -12 -185 -72 -27 -36 -29
-130 -3 -169 l17 -27 -70 0 -70 0 0 -40 0 -40 210 0 210 0 0 -35 c0 -33 2 -35
35 -35 l35 0 0 240 0 240 -35 0 c-32 0 -35 -3 -35 -29z m0 -206 l0 -95 -104 0
-104 0 -21 34 c-27 42 -27 86 -1 119 21 27 38 30 178 35 l52 2 0 -95z"/>
<path d="M2126 7503 c-3 -82 -8 -202 -9 -268 l-2 -120 33 -3 c24 -2 32 1 32
12 0 9 5 16 11 16 7 0 9 11 6 30 -7 34 -5 35 99 44 l61 5 7 -52 c10 -86 10
-87 -26 -87 -139 0 -198 -34 -198 -113 0 -90 35 -137 103 -137 23 0 53 7 65
16 l22 15 -21 30 c-15 22 -25 27 -32 20 -16 -16 -54 -13 -61 5 -20 53 -1 68
97 79 l67 7 0 -26 c0 -14 7 -43 16 -65 43 -107 204 -64 204 55 0 85 -41 124
-131 124 -36 0 -39 2 -39 28 0 15 -3 43 -6 63 l-6 37 93 8 94 9 -3 34 c-1 19
-5 37 -7 40 -4 4 -165 -8 -352 -26 l-63 -6 0 40 c0 22 3 68 7 103 l6 63 209
-8 208 -7 0 40 0 39 -127 6 c-71 4 -165 7 -210 7 l-83 0 0 45 c0 43 -1 45 -28
45 l-29 0 -7 -147z m398 -509 c9 -8 16 -22 16 -29 0 -41 -71 -61 -90 -26 -20
38 -12 59 23 64 17 2 33 5 34 5 1 1 9 -5 17 -14z"/>
<path d="M9216 7598 c-77 -134 -73 -289 8 -323 71 -30 119 14 124 116 l4 69
-29 0 c-27 0 -28 -2 -25 -40 5 -44 -10 -70 -39 -70 -59 0 -49 129 16 214 l34
45 -24 15 c-35 23 -42 21 -69 -26z"/>
<path d="M9825 7148 c-2 -7 -6 -39 -10 -70 -4 -39 -15 -69 -35 -96 -75 -104
-182 -28 -138 96 10 26 16 47 15 48 -1 1 -17 5 -35 9 -28 6 -34 4 -39 -13 -4
-16 -17 -22 -56 -27 -112 -15 -145 -52 -155 -170 l-4 -62 32 -7 c47 -9 48 -8
42 19 -13 70 31 145 86 145 28 0 30 -2 37 -54 3 -30 15 -66 26 -80 38 -48 128
-58 172 -18 20 17 20 16 14 -49 l-6 -67 31 -6 c18 -3 34 -2 38 4 10 16 52 388
45 399 -9 15 -55 14 -60 -1z"/>
<path d="M1430 633 l-462 -618 2575 -3 c1417 -1 3736 -1 5156 0 l2580 3 -382
617 -382 618 -4312 0 -4311 0 -462 -617z m2242 277 l298 0 0 -40 c0 -36 -2
-40 -25 -40 l-25 0 0 -230 0 -230 -50 0 -50 0 0 230 0 230 -65 0 -65 0 0 -150
0 -150 -26 0 c-18 0 -45 19 -90 62 -35 33 -64 67 -64 74 0 17 32 34 64 34 25
0 26 1 26 70 l0 71 -102 -3 -103 -3 -3 -232 -2 -233 -45 0 -45 0 0 235 0 235
-65 0 -65 0 0 -235 0 -235 -50 0 -50 0 0 61 c0 45 -3 59 -12 55 -62 -25 -90
-29 -141 -17 -31 7 -68 24 -89 41 -40 33 -78 102 -78 141 0 21 5 24 41 26 59
2 82 27 76 81 -7 67 -27 82 -109 82 l-68 0 0 35 0 35 308 0 307 1 -104 100
c-57 55 -102 101 -100 103 2 1 17 12 32 24 l29 21 106 -124 105 -125 299 0z
m2160 224 c5 -3 8 -16 8 -30 0 -22 -4 -24 -42 -24 -24 0 -49 -7 -60 -17 -24
-21 -23 -74 2 -123 l20 -40 355 0 355 0 0 -35 c0 -32 -2 -35 -30 -35 l-30 0 0
-230 0 -230 -45 0 -45 0 0 120 0 120 -48 0 c-42 0 -51 4 -70 30 -12 16 -22 32
-22 35 0 3 32 5 70 5 l70 0 0 75 0 75 -75 0 -75 0 0 -74 c0 -99 -11 -124 -60
-143 l-39 -16 21 -31 c12 -17 44 -57 71 -89 47 -55 48 -59 31 -73 -35 -27 -56
-36 -64 -27 -27 28 -179 246 -200 286 l-25 48 25 19 c34 27 41 25 72 -20 48
-69 78 -45 78 59 l0 61 -140 0 -140 0 -2 -232 -3 -233 -45 0 -45 0 -3 118 -3
117 -74 0 -75 0 0 -39 c0 -46 -20 -67 -48 -52 -11 6 -41 34 -66 63 -55 63 -58
91 -8 96 l32 3 0 80 0 79 -200 0 -200 0 0 -51 0 -51 26 17 c42 27 126 17 164
-20 71 -68 60 -169 -27 -265 -37 -41 -41 -42 -87 -5 -19 15 -19 16 11 48 41
43 53 69 53 111 0 40 -28 76 -59 76 -11 0 -33 -12 -50 -26 l-31 -26 0 -139 0
-139 -50 0 -50 0 0 60 0 60 -26 -10 c-104 -40 -214 33 -214 142 0 73 20 112
69 131 62 25 121 33 121 16 0 -8 3 -24 6 -36 6 -20 3 -23 -23 -23 -17 0 -42
-9 -57 -21 -36 -28 -37 -89 -1 -124 29 -30 50 -31 93 -5 l32 20 0 130 0 130
-155 0 -155 0 0 35 0 35 520 0 c286 0 520 4 520 8 0 4 -9 25 -20 47 -41 80
-17 163 53 184 29 9 91 6 109 -5z m1726 -106 l89 -123 931 -3 932 -2 0 -35 c0
-31 -3 -35 -25 -35 l-25 0 0 -230 0 -230 -45 0 -45 0 0 115 0 115 -79 0 -80 0
-3 -42 c-4 -60 -28 -62 -85 -6 -48 47 -77 93 -68 108 3 6 19 10 36 10 l29 0 0
80 0 80 -85 0 -85 0 0 -236 0 -235 -47 3 -48 3 -3 143 c-1 78 -7 142 -12 142
-18 0 -68 -51 -80 -82 -8 -18 -15 -35 -16 -36 -5 -7 -74 22 -74 31 0 4 7 21
15 36 13 26 13 30 -4 45 -10 9 -35 19 -54 23 -31 5 -40 1 -67 -25 -56 -57 -33
-130 60 -183 33 -19 59 -38 59 -44 1 -5 -8 -21 -18 -34 -23 -30 -50 -25 -112
23 -93 71 -130 164 -94 240 43 91 150 121 250 71 40 -20 58 -25 67 -17 7 5 29
14 48 19 34 9 35 11 35 59 l0 49 -262 3 -263 2 0 -235 0 -235 -45 0 -45 0 0
235 0 235 -65 0 -66 0 17 -32 c11 -22 15 -48 12 -89 -6 -76 -42 -130 -111
-163 l-50 -24 61 -47 c34 -27 62 -51 62 -54 -1 -3 -11 -19 -24 -34 l-23 -28
-59 45 c-32 24 -88 72 -123 106 l-64 61 28 29 28 29 25 -19 c29 -24 51 -25 96
-6 21 9 37 24 43 43 l10 29 -67 -4 c-63 -4 -69 -2 -101 26 -29 26 -33 35 -32
81 l1 51 -69 0 -69 0 0 -235 0 -235 -50 0 -50 0 0 235 0 235 -170 0 -170 0 0
-51 c0 -50 0 -50 22 -35 31 22 106 20 145 -4 43 -26 63 -68 63 -133 0 -57 -30
-117 -83 -165 l-25 -24 -31 23 c-17 12 -31 26 -31 29 0 4 12 17 26 31 56 52
69 117 33 163 -28 35 -54 33 -95 -8 l-34 -34 0 -131 0 -131 -45 0 -45 0 0 60
c0 57 -1 60 -19 50 -11 -5 -41 -10 -68 -10 -92 0 -153 63 -153 158 0 90 37
127 143 147 33 7 38 5 47 -20 15 -39 13 -42 -26 -48 -54 -9 -74 -32 -74 -84 0
-76 65 -109 124 -62 26 20 26 22 26 145 l0 124 -155 0 -155 0 0 40 0 40 383 0
382 1 -114 108 -115 108 30 16 c16 9 34 16 41 17 7 0 52 -55 101 -122z m-117
-40 c114 -92 97 -101 -52 -27 l-108 53 21 28 c11 17 26 27 34 24 7 -3 55 -38
105 -78z m-3241 -203 l0 -55 -55 0 -55 0 0 48 c0 27 3 52 7 55 3 4 28 7 55 7
l48 0 0 -55z m0 -295 l0 -50 -55 0 -55 0 0 50 0 50 55 0 55 0 0 -50z m5277
-242 c74 -75 81 -85 68 -102 -9 -11 -19 -15 -27 -10 -36 22 -188 137 -188 142
0 11 43 52 54 52 7 0 48 -37 93 -82z m-3142 42 c75 -17 100 -92 49 -143 -58
-59 -192 -57 -325 4 l-68 32 20 28 20 29 50 -25 c119 -61 231 -67 237 -13 4
33 -27 45 -69 28 -26 -11 -32 -10 -44 6 -13 17 -19 34 -12 34 1 0 20 7 42 15
48 17 49 17 100 5z"/>
<path d="M2958 784 c13 -41 14 -52 1 -88 -12 -36 -53 -76 -91 -88 -16 -6 7
-45 34 -59 37 -20 96 -13 134 16 l34 26 0 120 0 119 -64 0 -63 0 15 -46z"/>
<path d="M5550 755 l0 -75 75 0 75 0 0 75 0 75 -75 0 -75 0 0 -75z"/>
<path d="M7936 821 c-44 -49 17 -107 81 -77 37 18 41 34 16 65 -27 31 -74 37
-97 12z"/>
<path d="M9210 755 l0 -75 80 0 80 0 0 75 0 75 -80 0 -80 0 0 -75z"/>
</g>
</svg>
