<?xml version="1.0" standalone="no"?>
<!DOCTYPE svg PUBLIC "-//W3C//DTD SVG 20010904//EN"
 "http://www.w3.org/TR/2001/REC-SVG-20010904/DTD/svg10.dtd">
<svg version="1.0" xmlns="http://www.w3.org/2000/svg"
 width="220.000000pt" height="246.000000pt" viewBox="0 0 220.000000 246.000000"
 preserveAspectRatio="xMidYMid meet">

<g transform="translate(0.000000,246.000000) scale(0.100000,-0.100000)"
fill="#000000" stroke="none">
<path d="M1030 2400 c0 -68 2 -66 -81 -73 l-56 -5 -19 54 c-10 30 -21 54 -25
54 -9 0 -143 -41 -147 -45 -2 -2 4 -28 14 -59 10 -31 16 -57 13 -59 -2 -1 -30
-15 -63 -30 l-58 -28 -15 21 c-8 12 -25 33 -38 48 l-23 26 -57 -39 c-32 -22
-60 -46 -62 -52 -3 -7 9 -30 26 -52 17 -21 31 -42 31 -45 0 -6 -88 -89 -100
-94 -4 -2 -29 12 -55 30 l-46 33 -20 -25 c-10 -14 -31 -42 -46 -64 l-27 -38
23 -19 c12 -10 34 -27 48 -37 l26 -19 -34 -61 c-19 -34 -39 -62 -45 -62 -6 0
-28 7 -47 15 -20 8 -42 15 -49 15 -11 0 -58 -112 -58 -139 0 -5 10 -13 22 -17
12 -3 35 -12 53 -20 l31 -13 -11 -68 -11 -68 -62 -3 -62 -3 0 -78 0 -78 56 -6
c31 -3 60 -9 64 -14 4 -4 11 -37 14 -73 l7 -66 -55 -18 c-31 -9 -56 -20 -56
-23 0 -24 46 -143 55 -143 6 0 33 7 59 16 26 9 49 15 50 13 8 -9 67 -131 64
-133 -2 -2 -24 -18 -50 -38 l-47 -35 48 -66 49 -67 49 40 50 39 29 -30 29 -30
47 102 48 101 -31 44 c-41 60 -95 177 -115 249 -9 33 -18 112 -21 176 -4 96
-2 130 16 200 115 463 649 716 1073 509 412 -201 557 -724 306 -1108 l-42 -65
49 -93 c28 -52 53 -94 56 -94 3 0 14 9 24 20 24 26 33 25 79 -10 22 -17 43
-30 46 -30 9 0 90 115 90 127 0 4 -21 22 -45 38 -25 17 -45 34 -45 38 0 4 13
34 30 67 l30 59 57 -20 c31 -10 57 -18 59 -17 3 4 44 139 44 147 0 4 -25 15
-56 25 l-56 18 6 36 c3 21 6 52 6 70 l0 32 60 0 60 0 0 85 0 85 -59 0 -59 0
-8 58 c-4 31 -8 61 -9 66 0 5 25 18 57 28 l56 19 -25 75 c-14 40 -30 74 -37
74 -7 0 -34 -7 -60 -16 -26 -9 -48 -15 -50 -13 -1 2 -15 31 -31 63 l-28 60 24
15 c13 9 34 25 48 37 l24 21 -43 61 c-24 34 -47 62 -50 62 -4 0 -24 -13 -46
-30 -21 -16 -43 -30 -49 -30 -13 0 -95 82 -95 95 0 5 14 28 30 49 17 22 30 42
30 46 0 8 -116 90 -127 90 -5 0 -16 -12 -26 -27 -44 -72 -40 -70 -107 -38 -32
17 -59 35 -60 41 0 6 7 31 15 54 8 23 15 46 15 50 0 5 -34 20 -75 33 l-74 25
-22 -59 c-19 -50 -25 -58 -43 -54 -11 3 -41 9 -66 13 l-45 7 -3 63 -3 62 -79
0 -80 0 0 -60z m-10 -140 c0 -5 -5 -10 -11 -10 -7 0 -10 -14 -7 -35 5 -43 -14
-42 -23 1 -3 16 -10 28 -17 27 -19 -4 -14 15 6 20 31 8 52 7 52 -3z m73 3
c-28 -5 -30 -23 -3 -23 11 0 20 -4 20 -10 0 -5 -9 -10 -20 -10 -11 0 -20 -4
-20 -10 0 -5 9 -10 20 -10 11 0 20 -4 20 -10 0 -5 -13 -10 -30 -10 -29 0 -30
2 -30 45 0 44 0 45 33 44 23 -1 26 -3 10 -6z m107 -7 c10 -13 7 -15 -17 -13
-23 2 -29 -3 -31 -22 -3 -21 0 -23 22 -19 18 4 26 1 26 -9 0 -20 -50 -13 -63
9 -26 40 32 90 63 54z m53 -21 c-3 -10 2 -15 16 -15 13 0 21 6 21 17 0 11 3
13 9 8 12 -13 -1 -77 -16 -82 -7 -3 -9 4 -6 16 7 26 -22 29 -36 4 -16 -29 -21
-10 -9 35 6 23 14 39 19 37 4 -3 6 -12 2 -20z m-403 -15 c0 -5 -7 -10 -15 -10
-8 0 -15 -6 -15 -14 0 -9 8 -13 23 -9 20 4 21 3 4 -10 -10 -9 -15 -21 -11 -31
3 -9 2 -16 -4 -16 -5 0 -17 17 -25 38 -14 35 -14 38 7 49 26 15 36 16 36 3z
m510 -9 c0 -29 17 -34 25 -8 4 13 8 17 11 10 7 -16 -15 -83 -26 -83 -5 0 -12
15 -16 33 -7 31 -7 31 -17 10 -10 -24 -30 -33 -22 -10 19 54 26 67 35 67 5 0
10 -9 10 -19z m-573 -50 c15 -32 1 -61 -30 -61 -29 0 -47 18 -47 45 0 48 55
59 77 16z m703 8 c9 -16 8 -26 -5 -45 -17 -27 -27 -29 -56 -14 -21 12 -25 50
-7 68 19 19 56 14 68 -9z m40 -49 c-11 -27 -11 -32 6 -45 23 -17 14 -19 -20
-4 l-25 12 20 39 c23 46 38 44 19 -2z m-920 -19 c0 -5 -7 -11 -15 -15 -8 -3
-15 -10 -15 -16 0 -8 6 -8 20 0 24 13 28 -5 4 -18 -12 -7 -13 -11 -5 -16 7 -4
19 -2 27 5 8 6 17 9 21 5 8 -7 -26 -35 -44 -36 -6 0 -22 14 -34 31 l-22 32 24
18 c26 20 39 24 39 10z m1038 -3 c18 -18 15 -43 -8 -63 -17 -15 -24 -16 -45
-7 -27 12 -31 32 -15 63 12 21 50 25 68 7z m-1121 -52 c-3 -8 3 -26 15 -41 11
-14 17 -29 13 -33 -4 -4 -15 5 -26 20 -13 18 -26 25 -37 21 -12 -5 -10 1 7 20
27 30 36 34 28 13z m1205 -13 c19 -17 24 -43 8 -43 -5 0 -10 6 -10 14 0 20
-14 28 -35 20 -18 -7 -17 -45 3 -52 8 -2 10 2 5 15 -6 16 -5 16 11 4 14 -12
15 -16 3 -28 -18 -19 -46 -6 -54 25 -4 19 -1 30 17 44 27 22 29 22 52 1z
m-1242 -68 c19 -20 22 -30 14 -43 -6 -9 -20 -18 -30 -20 -22 -3 -71 42 -56 52
5 3 17 -3 27 -14 10 -11 24 -20 32 -20 20 0 16 28 -7 40 -11 6 -20 15 -20 20
0 17 16 11 40 -15z m1295 -6 c-5 -15 -1 -19 15 -19 12 0 18 -4 15 -10 -3 -5
-16 -10 -29 -10 -12 0 -27 -5 -34 -12 -6 -6 -15 -8 -19 -4 -4 4 0 12 9 17 9 5
19 23 23 39 4 17 11 28 16 24 5 -3 7 -14 4 -25z m-1387 -46 c-2 -11 8 -27 24
-39 36 -27 24 -40 -12 -14 -17 12 -35 17 -46 13 -14 -5 -13 0 6 25 27 36 33
39 28 15z m-13 -88 c19 -15 24 -24 15 -25 -8 0 -28 11 -45 25 -19 15 -24 24
-15 25 8 0 29 -11 45 -25z m1496 -9 c-9 -11 -7 -15 14 -20 31 -8 33 -25 2 -19
-18 4 -26 -2 -37 -24 -11 -23 -14 -25 -18 -10 -2 10 2 24 8 32 9 11 6 14 -17
17 l-28 3 40 22 c43 23 55 22 36 -1z m-1554 -8 c-2 -7 10 -22 27 -32 19 -12
26 -21 18 -23 -7 -3 -23 2 -36 10 -17 12 -26 13 -35 4 -14 -14 -14 -5 1 28 11
25 33 36 25 13z m1597 -82 c-19 -14 -11 -38 10 -30 8 3 16 2 19 -3 3 -4 -12
-16 -34 -25 -22 -9 -41 -12 -45 -7 -3 5 2 12 10 15 9 3 16 13 16 21 0 11 -7
13 -25 9 -39 -10 -29 10 13 27 41 17 63 12 36 -7z m-1639 -16 c-10 -11 -13
-20 -8 -20 6 0 16 7 23 15 16 19 39 19 46 1 7 -19 -13 -56 -31 -56 -20 0 -19
10 2 26 10 7 15 16 11 20 -5 4 -16 0 -26 -9 -26 -24 -42 -21 -42 6 0 27 7 37
28 37 12 0 12 -4 -3 -20z m4 -71 c40 -14 39 -26 -1 -37 l-33 -9 27 -8 c16 -4
26 -11 23 -15 -7 -12 -86 11 -82 24 2 6 13 12 25 14 24 4 30 22 8 22 -8 0 -18
5 -21 10 -8 13 14 13 54 -1z m1691 -16 c5 -5 -60 -62 -72 -63 -4 0 -5 14 -1
30 4 23 2 30 -11 30 -9 0 -16 5 -16 11 0 11 88 4 100 -8z m-1685 -84 c5 -5 -1
-9 -15 -9 -36 0 -70 11 -70 22 0 10 70 0 85 -13z m1700 -24 c0 -26 -4 -30 -27
-30 -14 0 -30 -3 -34 -7 -4 -4 -11 -5 -16 -2 -5 4 1 17 13 30 l22 24 -22 0
c-13 0 -19 4 -16 11 4 5 23 9 43 7 34 -3 37 -6 37 -33z m-25 -71 c23 -9 39
-21 38 -26 -5 -13 -88 -49 -88 -38 0 5 5 12 10 15 6 3 10 15 10 26 0 10 -4 19
-10 19 -5 0 -10 5 -10 10 0 13 3 13 50 -6z m-1690 -23 c0 -6 -10 -17 -22 -25
l-22 -16 22 0 c12 0 22 -4 22 -10 0 -5 -20 -10 -45 -10 -52 0 -56 8 -17 32
l27 17 -27 1 c-16 0 -28 5 -28 10 0 6 20 10 45 10 25 0 45 -4 45 -9z m1720
-76 c7 -8 10 -25 6 -40 -9 -36 -27 -31 -19 5 5 27 3 30 -20 30 -25 0 -44 -25
-27 -35 6 -4 10 -1 10 6 0 10 3 10 11 2 15 -15 3 -33 -22 -33 -14 0 -19 7 -19
28 0 15 5 33 12 40 17 17 53 15 68 -3z m-1726 -31 c-4 -17 -2 -29 7 -35 25
-15 1 -20 -40 -8 -49 15 -52 30 -8 52 44 22 48 21 41 -9z m1724 -69 c3 -2 1
-16 -2 -30 -9 -34 -49 -32 -54 3 -2 12 -10 22 -18 22 -8 0 -14 5 -14 11 0 8
14 9 42 5 23 -4 44 -9 46 -11z m-1704 -4 c6 -10 -26 -21 -64 -21 -30 0 -16 16
20 23 14 2 28 5 32 6 4 0 9 -3 12 -8z m10 -57 c12 -31 5 -43 -31 -53 -28 -8
-39 -7 -45 2 -11 18 -10 41 4 55 17 17 65 15 72 -4z m1660 -20 c28 -11 17 -23
-16 -21 -43 3 -48 -15 -9 -27 17 -5 31 -13 31 -17 0 -12 -11 -11 -49 2 -22 8
-31 17 -31 33 0 13 3 26 7 29 8 9 46 9 67 1z m-1651 -81 c-17 -25 -17 -25 5
-19 13 4 22 3 22 -3 0 -11 -69 -36 -77 -27 -3 3 2 17 11 31 l17 26 -28 -7
c-36 -9 -22 8 20 22 42 15 50 9 30 -23z m1640 -23 c4 -4 3 -19 -4 -33 -12 -27
-33 -35 -44 -17 -3 6 -15 10 -26 10 -26 0 -24 16 4 24 20 6 21 7 5 20 -10 7
-15 16 -12 19 6 6 64 -11 77 -23z m-1598 -39 c-7 -13 -75 -35 -82 -27 -7 6 54
35 75 36 7 0 11 -4 7 -9z m30 -72 c0 -7 -8 -15 -17 -17 -18 -3 -25 18 -11 32
10 10 28 1 28 -15z m1481 10 c10 -17 -13 -36 -27 -22 -12 12 -4 33 11 33 5 0
12 -5 16 -11z"/>
<path d="M726 2155 c-8 -22 23 -49 40 -34 10 8 11 16 3 30 -12 23 -35 25 -43
4z"/>
<path d="M1442 2168 c-19 -19 -15 -48 7 -48 24 0 36 30 18 47 -10 10 -15 11
-25 1z"/>
<path d="M1600 2085 c-16 -19 -5 -47 17 -43 22 4 29 43 9 51 -8 3 -20 -1 -26
-8z"/>
<path d="M1930 1609 c0 -5 5 -7 10 -4 6 3 10 8 10 11 0 2 -4 4 -10 4 -5 0 -10
-5 -10 -11z"/>
<path d="M1960 1515 c0 -8 5 -15 10 -15 6 0 10 7 10 15 0 8 -4 15 -10 15 -5 0
-10 -7 -10 -15z"/>
<path d="M235 1300 c-3 -5 -1 -10 4 -10 6 0 11 5 11 10 0 6 -2 10 -4 10 -3 0
-8 -4 -11 -10z"/>
<path d="M1960 1220 c0 -5 5 -10 10 -10 6 0 10 5 10 10 0 6 -4 10 -10 10 -5 0
-10 -4 -10 -10z"/>
<path d="M258 1183 c-10 -3 -18 -14 -18 -25 0 -14 5 -18 16 -14 9 3 20 6 25 6
11 0 12 27 2 33 -5 2 -16 2 -25 0z"/>
<path d="M1915 1039 c-4 -6 -5 -13 -2 -16 7 -7 27 6 27 18 0 12 -17 12 -25 -2z"/>
<path d="M1047 2093 c-14 -14 -6 -25 9 -12 13 10 17 10 25 -2 7 -11 -4 -16
-61 -23 -39 -5 -70 -12 -70 -16 0 -4 11 -5 25 -2 14 2 25 0 25 -6 0 -6 3 -17
6 -26 4 -11 1 -16 -11 -16 -12 0 -15 5 -10 23 7 21 6 21 -10 5 -21 -20 -14
-34 20 -40 21 -4 25 -1 25 18 0 15 6 24 16 24 11 0 15 -6 11 -20 -3 -11 -1
-18 4 -14 18 11 10 44 -11 44 -11 0 -20 5 -20 10 0 6 15 10 34 10 34 0 35 -1
39 -42 l4 -43 1 43 c1 23 6 42 12 42 5 0 0 11 -12 25 -22 25 -39 31 -51 18z"/>
<path d="M1300 2060 c0 -5 5 -10 10 -10 6 0 10 5 10 10 0 6 -4 10 -10 10 -5 0
-10 -4 -10 -10z"/>
<path d="M1213 2043 c21 -6 23 -33 1 -33 -23 0 -14 -44 11 -48 15 -2 17 -1 6
6 -11 8 -10 14 5 36 19 25 44 35 44 16 0 -5 -8 -14 -17 -19 -12 -7 -14 -10 -4
-11 8 0 11 -7 8 -20 -3 -11 -2 -20 3 -20 4 0 11 15 14 34 4 19 12 36 19 39 15
5 -60 27 -88 26 -17 -1 -17 -2 -2 -6z"/>
<path d="M784 2026 c-3 -7 -4 -19 -2 -27 3 -14 -7 -15 -52 -4 -21 5 -20 4 4
-7 l30 -14 -47 -27 c-46 -28 -75 -56 -44 -44 11 4 14 2 11 -8 -6 -14 17 -45
33 -45 4 1 19 9 31 20 l24 20 -22 27 c-19 24 -19 28 -5 36 9 5 18 7 19 5 1 -1
10 -16 20 -31 10 -16 20 -26 23 -24 2 3 -3 17 -12 31 -16 24 -14 46 5 46 5 0
14 -16 20 -36 7 -19 14 -33 17 -30 9 8 -19 80 -36 93 -14 11 -14 14 -1 23 11
7 11 10 2 10 -7 0 -15 -6 -18 -14z m-49 -113 c9 -12 10 -23 4 -35 -12 -21 -34
-24 -26 -4 4 11 1 13 -11 9 -15 -6 -15 -4 -4 10 8 9 11 21 7 27 -11 17 17 11
30 -7z"/>
<path d="M828 2033 c6 -2 18 -2 25 0 6 3 1 5 -13 5 -14 0 -19 -2 -12 -5z"/>
<path d="M883 2027 c-17 -7 -35 -16 -40 -21 -5 -5 -1 -7 8 -3 19 6 39 -10 39
-31 0 -8 -6 -12 -15 -8 -8 3 -15 1 -15 -4 0 -6 10 -10 21 -10 19 0 21 4 16 35
-8 46 6 45 27 -2 l16 -38 -6 35 c-3 19 -6 41 -7 48 0 14 -2 14 -44 -1z"/>
<path d="M1333 2010 c24 -15 23 -43 -2 -35 -15 4 -18 1 -14 -19 3 -14 12 -27
20 -31 14 -5 14 -3 2 11 -11 13 -10 17 4 25 9 6 17 16 17 24 0 9 6 12 18 8 12
-4 14 -3 7 5 -5 6 -23 13 -40 17 -24 5 -27 4 -12 -5z"/>
<path d="M1418 1974 c25 -12 11 -23 -25 -19 -21 3 -30 2 -20 -1 9 -3 17 -10
17 -16 0 -6 11 -21 25 -34 l26 -24 17 30 c9 16 21 30 25 30 19 0 17 -32 -3
-60 -12 -16 -17 -30 -11 -30 6 0 11 3 11 8 0 4 11 19 24 33 l24 26 -28 22
c-34 25 -40 26 -40 7 0 -20 -25 -37 -44 -30 -23 9 -20 22 7 26 27 4 29 32 2
35 -11 2 -14 0 -7 -3z"/>
<path d="M990 1925 c-201 -55 -342 -210 -357 -390 -7 -91 8 -143 60 -207 85
-104 203 -135 314 -84 44 21 52 22 57 9 6 -15 9 -113 3 -113 -1 0 -30 9 -62
21 -89 32 -184 30 -262 -5 -33 -15 -72 -40 -86 -54 -27 -28 -377 -785 -377
-814 0 -10 4 -18 9 -18 4 0 51 20 102 45 118 55 199 75 314 75 158 0 291 -40
351 -105 27 -30 38 -35 77 -35 38 0 49 5 71 30 53 63 204 110 356 110 113 0
177 -16 288 -71 56 -27 88 -37 94 -31 7 7 -58 149 -194 424 l-205 414 -53 23
c-63 27 -165 32 -248 12 -29 -7 -55 -11 -58 -8 -3 2 -2 28 2 56 l7 51 36 -22
c52 -33 148 -32 215 2 93 47 166 173 166 288 0 152 -93 279 -265 362 -85 42
-93 44 -195 47 -71 2 -123 -2 -160 -12z m291 -29 c74 -26 157 -77 214 -133 54
-52 87 -131 93 -219 4 -66 2 -79 -27 -140 -38 -81 -92 -136 -157 -158 -62 -21
-99 -20 -151 4 -51 23 -54 39 -12 74 35 30 49 33 49 9 0 -50 71 -69 125 -33
17 11 40 20 53 20 48 0 14 83 -48 115 -45 23 -106 20 -124 -7 -9 -12 -16 -30
-16 -39 0 -9 -11 -21 -25 -27 -22 -10 -25 -9 -25 8 0 22 145 180 165 180 7 0
29 14 50 30 21 17 48 30 61 30 50 0 12 55 -58 85 -71 29 -156 8 -145 -36 4
-13 -2 -23 -16 -31 -12 -6 -39 -24 -59 -40 -21 -16 -38 -27 -38 -23 0 16 31
63 59 89 36 34 39 46 13 46 -23 0 -41 -19 -85 -92 -19 -32 -37 -55 -41 -51 -3
3 -6 32 -6 64 0 57 0 58 35 69 64 21 77 93 25 137 -17 14 -37 38 -46 54 -17
33 -30 37 -39 10 -3 -10 -21 -35 -40 -54 -55 -57 -43 -125 28 -150 14 -5 17
-19 17 -78 l0 -71 -44 59 c-76 101 -120 127 -71 42 13 -24 25 -47 25 -51 0 -4
-20 2 -45 14 -35 17 -45 27 -45 47 0 95 -157 92 -220 -5 -26 -39 -25 -44 9
-44 16 0 49 -11 72 -25 56 -31 84 -31 113 0 l23 25 49 -32 c54 -36 100 -113
111 -183 l6 -40 -30 40 c-56 76 -162 155 -208 155 -23 0 -18 -17 8 -24 31 -7
96 -65 135 -120 45 -63 1 -59 -60 6 -21 23 -34 28 -73 28 -42 0 -52 -5 -86
-39 -45 -45 -51 -71 -14 -71 13 0 39 -9 57 -20 18 -11 46 -20 62 -20 32 0 66
25 66 48 0 17 41 10 78 -14 28 -18 21 -31 -32 -55 -49 -22 -134 -25 -179 -5
-92 40 -167 148 -167 243 0 113 70 252 160 318 52 39 142 81 199 94 75 18 202
12 272 -13z m29 -298 c0 -6 8 -20 17 -31 17 -18 16 -20 -12 -40 -47 -33 -90
-82 -124 -139 l-31 -53 0 63 c0 80 23 128 87 175 52 39 63 44 63 25z m-292
-468 c47 -20 52 -26 52 -54 -1 -97 -59 -259 -117 -326 -17 -19 -35 -45 -42
-57 -19 -37 17 -29 83 17 31 22 61 40 66 40 4 0 14 -15 20 -34 6 -19 18 -40
26 -46 18 -16 21 -255 2 -266 -8 -5 -9 0 -5 15 5 20 -1 26 -46 46 -133 58
-351 83 -476 54 -24 -5 -45 -8 -48 -6 -3 4 57 177 181 521 20 55 36 101 36
103 0 1 15 7 33 12 53 17 175 7 235 -19z m428 10 c27 -10 37 -31 142 -303 62
-160 112 -294 112 -297 0 -3 -60 -6 -133 -6 -99 -1 -152 -7 -210 -23 -92 -24
-178 -68 -185 -94 -2 -10 -10 -16 -16 -14 -7 2 -12 46 -14 125 -2 107 0 126
18 163 16 29 26 39 38 36 9 -3 38 -12 65 -21 26 -8 47 -13 47 -12 0 2 -15 27
-34 55 -46 67 -72 140 -86 237 -18 124 -15 136 45 150 64 15 173 17 211 4z
m-921 -417 c-135 -308 -186 -406 -201 -390 -4 4 325 727 339 745 31 39 4 -31
-138 -355z m1025 302 c0 -5 -5 -3 -10 5 -5 8 -10 20 -10 25 0 6 5 3 10 -5 5
-8 10 -19 10 -25z m138 -326 c113 -266 137 -338 101 -302 -8 8 -239 598 -239
611 0 16 21 -30 138 -309z m206 -347 c-1 -2 -14 3 -29 10 -22 12 -48 66 -156
319 -71 167 -129 306 -129 309 0 3 72 -139 159 -315 87 -176 157 -321 155
-323z m-1283 491 c-12 -20 -14 -14 -5 12 4 9 9 14 11 11 3 -2 0 -13 -6 -23z
m-77 -194 c-35 -90 -71 -180 -79 -200 l-14 -37 61 19 c84 26 216 34 319 20
101 -15 241 -59 236 -75 -3 -6 -11 -9 -18 -7 -184 54 -182 54 -334 55 -131 1
-159 -2 -224 -22 -40 -13 -74 -22 -76 -20 -4 4 187 439 191 435 2 -2 -26 -77
-62 -168z m351 -158 c100 -21 201 -59 188 -72 -5 -5 -31 0 -59 10 -128 49
-352 66 -476 37 -71 -16 -67 -2 5 18 106 30 220 32 342 7z m832 4 c2 -6 -48
-11 -135 -12 -151 -1 -249 -21 -341 -68 -55 -27 -69 -19 -23 14 77 55 197 80
366 78 76 -1 131 -6 133 -12z m23 -56 c7 -11 10 -22 8 -24 -2 -2 -30 3 -63 11
-33 8 -103 15 -155 16 -106 1 -181 -16 -265 -60 -67 -36 -65 -35 -65 -23 0 16
119 68 195 84 40 9 126 16 202 16 124 1 133 0 143 -20z"/>
<path d="M918 619 c-22 -12 -24 -31 -3 -23 12 5 15 -2 15 -30 0 -20 5 -36 10
-36 6 0 10 23 10 50 0 52 -3 56 -32 39z"/>
<path d="M1004 616 c-9 -25 3 -46 27 -46 12 0 19 -5 16 -12 -2 -7 -11 -12 -21
-10 -9 2 -16 -2 -16 -8 0 -5 11 -10 25 -10 27 0 40 28 33 71 -4 29 -54 40 -64
15z m46 -22 c0 -8 -7 -14 -15 -14 -15 0 -21 21 -9 33 10 9 24 -2 24 -19z"/>
<path d="M1187 623 c-15 -14 -7 -43 12 -43 24 0 37 -18 23 -32 -8 -8 -16 -7
-27 2 -12 10 -15 10 -15 -4 0 -23 47 -21 59 3 11 20 -2 44 -29 54 -10 4 -7 6
8 6 12 1 22 6 22 11 0 11 -43 14 -53 3z"/>
<path d="M1302 618 c-15 -15 -16 -32 -2 -23 6 4 10 -8 10 -29 0 -20 5 -36 10
-36 6 0 10 23 10 50 0 51 -6 60 -28 38z"/>
<path d="M588 1893 c6 -2 18 -2 25 0 6 3 1 5 -13 5 -14 0 -19 -2 -12 -5z"/>
<path d="M632 1887 c-7 -8 -22 -12 -36 -10 -13 3 -26 1 -30 -5 -3 -5 6 -7 22
-4 l27 5 -33 -36 -34 -35 31 -13 c17 -8 31 -21 32 -29 0 -8 6 -3 12 11 7 16
18 24 27 21 8 -3 2 9 -13 25 -24 25 -26 32 -13 42 11 9 18 7 34 -14 27 -34 38
-32 14 3 -10 15 -21 33 -23 41 -4 11 -7 11 -17 -2z m-16 -68 c10 -17 -13 -36
-27 -22 -12 12 -4 33 11 33 5 0 12 -5 16 -11z"/>
<path d="M1565 1870 c16 -16 24 -30 18 -30 -6 0 -16 7 -23 15 -14 17 -36 20
-45 5 -10 -17 15 -42 30 -30 19 16 27 -2 8 -22 -25 -28 0 -22 27 7 12 13 28
22 34 18 6 -3 -5 10 -23 30 -19 21 -39 37 -45 37 -5 0 3 -13 19 -30z m-20 -20
c3 -5 -1 -10 -10 -10 -9 0 -13 5 -10 10 3 6 8 10 10 10 2 0 7 -4 10 -10z"/>
<path d="M1674 1754 c9 -23 -3 -37 -19 -24 -10 9 -16 7 -24 -9 -14 -25 -5 -48
20 -54 13 -4 17 -10 13 -22 -6 -16 -4 -16 27 1 19 10 37 17 42 16 12 -3 8 5
-24 58 -30 49 -47 66 -35 34z m34 -55 c8 -13 8 -20 -3 -29 -16 -13 -39 -4 -29
11 3 5 10 7 15 4 5 -4 9 -1 9 4 0 14 -27 14 -35 1 -10 -16 -25 -11 -25 8 0 25
53 26 68 1z"/>
<path d="M492 1717 c-5 -7 -17 -28 -27 -47 l-18 -35 22 19 c21 19 21 19 21 -2
0 -29 36 -30 45 -2 3 11 14 20 23 21 15 0 14 2 -2 12 -11 7 -27 20 -37 29 -13
12 -20 14 -27 5z m26 -26 c16 -10 12 -43 -6 -49 -7 -2 -10 2 -6 11 3 8 1 18
-5 22 -13 7 -15 25 -3 25 4 0 13 -4 20 -9z"/>
<path d="M1750 1616 c5 -14 6 -26 1 -26 -5 0 -11 7 -15 15 -9 23 -28 18 -24
-7 1 -13 -2 -23 -7 -23 -6 0 -10 8 -9 18 0 9 -3 17 -8 17 -14 0 -9 -37 7 -50
21 -17 36 -3 29 28 -5 25 -4 26 8 7 7 -11 21 -21 30 -23 15 -2 16 1 7 28 -6
16 -15 33 -20 36 -5 3 -5 -6 1 -20z"/>
<path d="M420 1621 c-29 -8 -42 -51 -16 -51 19 0 20 -9 6 -44 -5 -15 -6 -26 0
-26 5 0 10 10 12 22 5 32 24 33 23 1 0 -21 5 -29 21 -31 13 -2 24 4 28 14 5
14 4 15 -9 4 -11 -10 -19 -10 -27 -2 -19 19 -2 40 29 36 28 -4 28 -4 -4 8 -17
7 -35 16 -39 21 -4 4 -16 7 -26 7 -10 0 -18 5 -18 10 0 19 25 21 70 5 23 -8
45 -13 48 -10 3 3 -9 10 -26 16 -18 6 -32 15 -32 20 0 10 -4 10 -40 0z"/>
<path d="M1650 1560 c0 -5 5 -10 10 -10 6 0 10 5 10 10 0 6 -4 10 -10 10 -5 0
-10 -4 -10 -10z"/>
<path d="M1779 1510 c-3 -17 -11 -26 -26 -28 -13 -2 -23 1 -23 7 0 6 5 11 10
11 6 0 10 5 10 12 0 8 -6 7 -16 -4 -22 -22 -8 -41 27 -36 20 3 29 0 29 -9 0
-7 -10 -13 -22 -13 -13 0 -30 -5 -38 -10 -11 -7 -1 -9 32 -7 46 2 46 2 41 32
-3 17 -9 39 -13 50 -7 18 -8 18 -11 -5z"/>
<path d="M397 1451 c-8 -38 -2 -54 8 -22 8 27 35 27 35 1 0 -14 5 -18 18 -13
27 10 44 43 22 43 -5 0 -10 -7 -10 -15 0 -8 -4 -15 -10 -15 -5 0 -10 7 -10 15
0 8 -9 15 -19 15 -11 0 -21 6 -23 12 -3 7 -8 -3 -11 -21z"/>
<path d="M1785 1403 c-29 -7 -47 -24 -41 -39 3 -7 -3 -15 -12 -17 -9 -3 2 -5
25 -6 23 0 44 -7 46 -13 3 -7 6 8 6 35 1 26 0 46 -1 46 -2 -1 -12 -4 -23 -6z
m15 -38 c0 -16 -35 -21 -44 -6 -8 12 4 21 26 21 10 0 18 -7 18 -15z"/>
<path d="M391 1349 c0 -30 3 -48 6 -41 6 15 33 16 33 1 0 -6 -9 -13 -20 -16
-22 -6 -24 -33 -2 -41 7 -2 10 2 6 12 -4 10 -1 16 9 16 8 0 17 -5 19 -12 5
-14 38 -3 38 13 0 6 -9 13 -20 16 -23 6 -27 23 -6 23 8 0 18 5 22 12 5 8 -4 9
-34 4 -38 -6 -42 -4 -42 14 0 17 7 20 43 22 40 1 40 1 7 5 -19 3 -41 9 -47 15
-10 8 -13 -1 -12 -43z"/>
<path d="M1684 1374 c-7 -26 9 -54 23 -40 4 4 1 11 -6 15 -8 5 -11 17 -6 30 3
11 4 21 1 21 -3 0 -9 -12 -12 -26z"/>
<path d="M1743 1299 c-13 -5 -23 -16 -23 -26 1 -17 1 -17 11 0 10 18 12 18 26
-2 8 -12 19 -19 24 -16 5 4 9 1 9 -4 0 -6 5 -11 10 -11 6 0 10 17 9 38 0 32
-1 34 -9 15 -11 -28 -27 -30 -32 -4 -2 15 -8 17 -25 10z"/>
<path d="M262 117 l-83 -112 937 -3 c516 -1 939 0 942 2 2 3 -26 55 -63 115
l-67 111 -792 0 -791 -1 -83 -112z m338 73 c9 -17 21 -20 71 -20 52 0 60 -2
55 -16 -3 -9 -6 -31 -6 -50 0 -19 -4 -34 -10 -34 -5 0 -10 18 -10 40 0 22 -4
40 -10 40 -5 0 -10 -12 -10 -26 0 -16 -5 -24 -12 -21 -7 2 -12 14 -11 26 2 15
-3 21 -17 21 -17 0 -20 -7 -20 -40 0 -22 -4 -40 -10 -40 -5 0 -10 18 -10 40 0
22 -4 40 -10 40 -5 0 -10 -18 -10 -40 0 -22 -4 -40 -10 -40 -5 0 -10 5 -10 11
0 5 -4 8 -8 5 -5 -3 -19 2 -31 10 -21 15 -21 17 -4 30 17 13 17 14 -4 20 -42
12 -24 24 34 24 55 0 56 0 38 20 -10 11 -13 20 -7 20 6 0 16 -9 22 -20z m463
13 c-7 -2 -13 -11 -13 -19 0 -11 16 -14 65 -14 l65 0 0 -50 c0 -27 -4 -50 -10
-50 -5 0 -10 9 -10 19 0 11 -6 22 -12 25 -10 5 -10 7 0 12 16 8 15 24 -2 24
-17 0 -28 -51 -14 -67 7 -9 7 -13 0 -13 -6 0 -20 14 -32 30 -19 27 -19 35 3
31 4 0 7 4 7 9 0 6 -11 10 -25 10 -22 0 -25 -4 -25 -40 0 -22 -4 -40 -10 -40
-5 0 -10 9 -10 20 0 11 -4 20 -10 20 -5 0 -10 -5 -10 -11 0 -8 -4 -8 -14 0 -8
7 -12 21 -9 31 5 17 0 20 -33 19 -34 0 -36 -1 -16 -10 25 -9 28 -49 5 -56 -7
-3 -9 3 -6 16 3 12 1 21 -6 21 -6 0 -11 -11 -11 -25 0 -14 -4 -25 -10 -25 -5
0 -10 4 -10 10 0 5 -6 7 -14 4 -16 -6 -36 24 -29 44 3 6 12 12 21 12 12 0 13
-3 4 -12 -16 -16 -15 -28 3 -28 9 0 15 9 15 25 0 21 -5 25 -31 25 -17 0 -28 4
-24 10 3 6 46 10 96 10 82 0 89 1 89 20 0 13 6 20 18 19 10 0 12 -3 5 -6z
m510 -33 l167 0 0 -50 c0 -27 -4 -50 -10 -50 -5 0 -10 9 -10 20 0 11 -7 20
-15 20 -8 0 -15 -5 -15 -11 0 -8 -4 -8 -14 0 -8 7 -12 21 -9 31 4 14 0 20 -11
20 -12 0 -16 -10 -16 -40 0 -22 -4 -40 -10 -40 -5 0 -10 12 -10 28 0 21 -2 24
-10 12 -8 -13 -11 -13 -19 -1 -5 7 -14 10 -21 6 -8 -5 -7 -12 6 -26 16 -17 16
-19 1 -19 -22 0 -35 49 -16 61 8 4 24 6 36 2 14 -3 23 -1 23 6 0 6 -19 11 -45
11 l-45 0 0 -40 c0 -22 -4 -40 -10 -40 -5 0 -10 18 -10 40 0 22 -4 40 -10 40
-5 0 -10 -9 -10 -19 0 -11 -4 -22 -10 -26 -5 -3 -7 -12 -3 -20 8 -21 -11 -18
-32 5 -18 19 -17 20 3 20 l22 0 -20 20 c-30 30 -40 25 -40 -20 0 -22 -4 -40
-10 -40 -5 0 -10 18 -10 40 0 39 -1 40 -32 39 -31 0 -31 -1 -10 -10 26 -10 28
-49 4 -57 -11 -3 -12 0 -3 17 10 17 9 21 -4 21 -9 0 -15 -9 -15 -25 0 -29 0
-29 -35 -13 -27 12 -32 47 -8 55 7 3 9 -3 6 -16 -3 -12 -1 -21 6 -21 6 0 11
11 11 25 0 20 -5 25 -25 25 -14 0 -25 5 -25 10 0 8 83 16 113 11 5 -1 6 3 2 8
-3 6 -12 8 -20 4 -8 -3 -15 0 -15 7 0 6 5 8 10 5 6 -3 10 -1 10 6 0 7 10 3 23
-9 22 -21 33 -22 190 -22z m-803 -30 c0 -5 -4 -10 -10 -10 -5 0 -10 5 -10 10
0 6 5 10 10 10 6 0 10 -4 10 -10z m0 -50 c0 -5 -4 -10 -10 -10 -5 0 -10 5 -10
10 0 6 5 10 10 10 6 0 10 -4 10 -10z m970 -45 c7 -8 8 -15 2 -15 -5 0 -15 7
-22 15 -7 8 -8 15 -2 15 5 0 15 -7 22 -15z m-569 -10 c0 -15 -38 -18 -58 -5
-15 9 -11 10 17 5 27 -5 32 -4 20 5 -13 9 -12 11 3 8 10 -2 18 -7 18 -13z"/>
<path d="M540 141 c0 -5 -3 -16 -6 -25 -4 -11 -1 -16 10 -16 10 0 16 9 16 25
0 14 -4 25 -10 25 -5 0 -10 -4 -10 -9z"/>
<path d="M1020 135 c0 -8 5 -15 10 -15 6 0 10 7 10 15 0 8 -4 15 -10 15 -5 0
-10 -7 -10 -15z"/>
<path d="M1690 134 c0 -17 22 -14 28 4 2 7 -3 12 -12 12 -9 0 -16 -7 -16 -16z"/>
</g>
</svg>
