<?xml version="1.0" standalone="no"?>
<!DOCTYPE svg PUBLIC "-//W3C//DTD SVG 20010904//EN"
 "http://www.w3.org/TR/2001/REC-SVG-20010904/DTD/svg10.dtd">
<svg version="1.0" xmlns="http://www.w3.org/2000/svg"
 width="226.000000pt" height="67.000000pt" viewBox="0 0 226.000000 67.000000"
 preserveAspectRatio="xMidYMid meet">

<g transform="translate(0.000000,67.000000) scale(0.100000,-0.100000)"
fill="#000000" stroke="none">
<path d="M85 583 c11 -3 23 -10 27 -17 10 -14 10 -328 0 -342 -4 -6 -14 -14
-22 -17 -8 -3 14 -5 50 -5 36 0 58 2 50 5 -25 10 -30 25 -30 96 l0 67 33 0
c41 0 54 -14 100 -105 68 -137 171 -237 241 -234 22 1 25 3 10 6 -57 11 -162
140 -228 280 l-29 62 31 29 c58 54 54 133 -8 164 -27 14 -58 18 -140 17 -58
-1 -96 -4 -85 -6z m193 -39 c29 -33 31 -105 2 -134 -22 -22 -57 -33 -91 -28
-23 3 -24 7 -27 95 -2 81 -1 92 15 96 33 9 78 -4 101 -29z"/>
<path d="M1168 520 c-51 -15 -89 -45 -108 -85 -47 -98 -5 -203 94 -235 38 -12
143 -9 165 5 6 3 11 28 11 55 0 29 5 50 13 53 6 3 -15 5 -48 5 -40 0 -52 -2
-35 -7 21 -6 25 -13 28 -53 3 -44 2 -46 -29 -52 -40 -8 -101 8 -122 32 -64 71
-60 197 8 250 54 43 165 21 165 -33 0 -8 5 -15 10 -15 11 0 12 15 4 47 -10 35
-91 53 -156 33z"/>
<path d="M2024 516 c-34 -15 -44 -33 -44 -75 0 -38 22 -65 85 -100 36 -20 57
-39 61 -55 14 -58 -28 -95 -87 -74 -22 8 -37 23 -50 52 l-19 41 0 -37 c0 -52
27 -78 83 -78 59 0 104 30 113 75 8 46 -11 75 -80 119 -69 44 -83 68 -61 102
10 16 25 24 45 24 29 0 37 -5 65 -45 14 -19 14 -19 15 5 0 14 -4 30 -8 37 -12
19 -83 25 -118 9z"/>
<path d="M417 510 c20 -8 22 -16 25 -140 3 -130 3 -132 31 -156 33 -29 98 -32
154 -9 33 14 38 14 55 -1 17 -17 18 -13 18 113 0 150 6 190 29 196 9 3 -11 5
-44 6 -45 0 -56 -2 -42 -10 15 -9 17 -27 17 -139 0 -128 0 -130 -25 -146 -37
-24 -102 -22 -128 5 -20 19 -22 34 -26 146 -3 123 -3 125 20 134 19 8 10 10
-41 10 -47 0 -59 -3 -43 -9z"/>
<path d="M757 513 c-4 -3 -7 -20 -7 -37 1 -28 2 -29 12 -11 17 32 39 45 75 45
l33 0 0 -145 c0 -142 -1 -146 -22 -155 -17 -6 -7 -9 42 -9 49 0 59 3 43 9 -22
9 -23 13 -23 155 l0 145 33 0 c36 0 58 -13 75 -45 10 -17 11 -15 12 18 l0 37
-133 0 c-74 0 -137 -3 -140 -7z"/>
<path d="M1408 510 c21 -9 22 -13 22 -150 0 -137 -1 -141 -22 -150 -16 -6 14
-9 95 -9 105 -1 117 1 117 17 0 9 3 28 6 42 5 22 4 21 -15 -7 -22 -35 -50 -46
-102 -41 l-34 3 -3 73 -3 72 44 0 c36 0 46 -4 55 -22 9 -20 11 -16 11 27 0 43
-2 47 -11 28 -9 -19 -19 -23 -55 -23 l-43 0 0 70 0 70 43 0 c50 0 63 -7 76
-40 9 -23 10 -22 10 13 l1 37 -107 -1 c-75 0 -101 -3 -85 -9z"/>
<path d="M1680 513 c27 -10 30 -26 30 -161 0 -128 -1 -133 -22 -142 -17 -7 -8
-9 37 -8 33 0 52 2 43 5 -15 4 -18 16 -18 69 0 54 3 64 18 64 26 0 36 -10 67
-65 35 -62 51 -75 88 -75 l30 0 -26 20 c-14 11 -39 45 -56 76 l-32 55 26 20
c35 29 47 55 40 90 -10 44 -48 59 -152 58 -48 0 -81 -3 -73 -6z m163 -35 c40
-47 1 -128 -63 -128 l-30 0 0 74 c0 50 4 76 13 79 21 8 61 -4 80 -25z"/>
</g>
</svg>
