<svg id="Rutgers" xmlns="http://www.w3.org/2000/svg" viewBox="0 0 222.63 59.86"><defs><style>.cls-1{fill:#e31937;fill-rule:evenodd;}</style></defs><path class="cls-1" d="M65.91,42.26l1.56-.47V15.59c0-6.34,0-6.6,2-6.81l1.87-.15V7.51H58.74V8.63l1.87.15c2,.21,2,.47,2,6.81V36.7a12.49,12.49,0,0,1-9.41,4.16c-8,0-9.29-4.94-9.29-12.37V15.59c0-6.34,0-6.6,2-6.81l1.87-.15V7.51H35.21V8.63l1.87.15c2,.21,2,.47,2,6.81V29.32c0,7.07.88,13.25,11.63,13.25,6.91,0,11.22-3.27,11.95-3.27s1.19.73,1.92,1.45Z"/><path class="cls-1" d="M79.82,41.79H94.21V40.67l-1.87-.15c-2.91-.21-2.91-.47-2.91-6.81V9h2.7c7.33,0,7.43.78,8.58,6.8H102c0-.2-.26-7.12-.47-8.26H72.55c-.21,1.14-.47,8.06-.47,8.26h1.25c1.14-6,1.25-6.8,8.57-6.8h2.7V33.71c0,6.34,0,6.6-2.85,6.81l-1.93.15Z"/><path class="cls-1" d="M133.93,35c0-5.06,0-5.32,1-5.53l1.87-.16V28.16h-13.2v1.11l1.87.16c3.64.21,3.64.47,3.64,6.83v3.92a26.49,26.49,0,0,1-6.08.68c-10.18,0-14.7-8.23-14.7-17.09,0-9.71,5.35-15.32,13.87-15.32,8.88,0,9.56,6.33,10.08,8.41l1.4-.31c-.23-2.56-.5-5.47-.83-7.69-1.35-.83-5.3-2.13-10.6-2.13-8.21,0-19.37,4.16-19.37,18,0,13.23,9.35,17.81,19.79,17.81A34.33,34.33,0,0,0,134,40.5S133.93,36.52,133.93,35Z"/><path class="cls-1" d="M140,41.79h23.79a84.28,84.28,0,0,0,1.71-8.62L164.19,33c-1,4.26-1.56,7.38-9.83,7.38a29.36,29.36,0,0,1-5.65-.68v-15h4.61c4,0,5,.06,5.29,2.19l.26,1.76h1.37V19.3h-1.37l-.26,1.77c-.31,2.13-1.25,2.18-5.29,2.18h-4.61V9H153c7.33,0,7.44.77,8.58,6.33l1.25-.21c0-.46-.26-6.44-.47-7.58H140V8.63l1.87.15c2,.21,2,.47,2,6.82V33.7c0,6.35,0,6.61-2,6.82l-1.87.15Z"/><path class="cls-1" d="M169.56,41.79h12.57V40.67l-1.88-.15c-2-.21-2-.47-2-6.82V26.83h1.93a5.17,5.17,0,0,1,3.22.68,23.74,23.74,0,0,1,3.21,5.1l2.08,4c1.56,2.86,3.95,5.17,7.38,5.17h4V40.67a5.45,5.45,0,0,1-2.6-.51c-1.3-.73-3.59-3.8-5.77-7.71-1.4-2.49-3.12-5.83-3.9-7.28,2.86-1.35,7.17-4.21,7.17-9,0-7.9-7-8.61-11.89-8.61H169.56V8.63l1.87.15c2,.21,2,.47,2,6.82V33.7c0,6.35,0,6.61-2,6.82l-1.87.15Zm8.72-32.15a16.41,16.41,0,0,1,3.22-.42c4.05,0,8.05,1.88,8.05,8,0,5.87-3.94,8.21-8.31,8.21h-3Z"/><path class="cls-1" d="M211.41,20.5c-2.8-1.66-5-3.33-5-6.39A5.51,5.51,0,0,1,212,8.45c5.86,0,6.7,4.52,7.21,7.11h1.31c-.13-1.51-.26-5.32-.53-7.17a14.47,14.47,0,0,0-7.16-1.66c-5.51,0-10.81,2.65-10.81,9,0,3.89,2.76,7.11,5.72,8.72l3.32,1.82c4.05,1.82,7.22,4.42,7.22,8.21,0,4.05-2.65,6.39-6.23,6.39-7.12,0-9-6.18-9.61-9.92l-1.66.41c.58,3.56,1.16,7.18,1.66,9.15a15,15,0,0,0,8.15,2.07c5.51,0,12-2.7,12-9.71,0-6.24-4.26-8.42-8.36-10.75Z"/><path class="cls-1" d="M23.27,22c.59,3.3,5.18,11.75,6.94,14.89,4,7.34,14.17,22.18,21.79,21.7h.88v1.2l-1.34.05c-10.78.42-20.41-11.59-26-21.22-2.28-3.92-4.49-8.46-6.46-12.54a4.64,4.64,0,0,0-1.79-2.15,7.92,7.92,0,0,0-3.6-.55c-.66,0-2.64,0-3.67,0V32c0,1.59-.12,5.53.31,7.08.34,1.23,1.08,1.38,2.3,1.51l2.11.18v1H0v-1l2.11-.18c1.26-.13,2-.28,2.36-1.51.44-1.53.32-5.5.32-7.08V9.78c0-1.58.12-5.55-.32-7.08-.35-1.23-1.1-1.38-2.36-1.51L0,1V0H10C18.88,0,30.8-1.22,30.8,11.2c0,5-3.42,8.31-7.59,10.36A3.41,3.41,0,0,0,23.27,22ZM10,22c1.59.09,3.3,0,4.89,0,6.15,0,9.91-3.3,9.91-9.45C24.8,5.84,21,1.73,14.17,1.73A21.66,21.66,0,0,0,10,2.28Z"/></svg>